  0
SECTION
  2
HEADER
  9
$ACADVER
  1
AC1015
  9
$ACADMAINTVER
 70
     6
  9
$DWGCODEPAGE
  3
ANSI_1252
  9
$INSBASE
 10
0.0
 20
0.0
 30
0.0
  9
$EXTMIN
 10
-100.0
 20
-100.0
 30
0.0
  9
$EXTMAX
 10
100.0
 20
100.0
 30
0.0
  9
$LIMMIN
 10
0.0
 20
0.0
  9
$LIMMAX
 10
420.0
 20
297.0
  9
$ORTHOMODE
 70
     0
  9
$REGENMODE
 70
     1
  9
$FILLMODE
 70
     1
  9
$QTEXTMODE
 70
     0
  9
$MIRRTEXT
 70
     1
  9
$LTSCALE
 40
1.0
  9
$ATTMODE
 70
     1
  9
$TEXTSIZE
 40
3.5
  9
$TRACEWID
 40
1.0
  9
$TEXTSTYLE
  7
Standard
  9
$CLAYER
  8
0
  9
$CELTYPE
  6
ByLayer
  9
$CECOLOR
 62
   256
  9
$CELTSCALE
 40
1.0
  9
$DISPSILH
 70
     0
  9
$DIMSCALE
 40
1.0
  9
$DIMASZ
 40
3.302
  9
$DIMEXO
 40
0.0
  9
$DIMDLI
 40
3.75
  9
$DIMRND
 40
0.0
  9
$DIMDLE
 40
0.0
  9
$DIMEXE
 40
1.0
  9
$DIMTP
 40
0.0
  9
$DIMTM
 40
0.0
  9
$DIMTXT
 40
3.5
  9
$DIMCEN
 40
2.5
  9
$DIMTSZ
 40
0.0
  9
$DIMTOL
 70
     0
  9
$DIMLIM
 70
     0
  9
$DIMTIH
 70
     1
  9
$DIMTOH
 70
     1
  9
$DIMSE1
 70
     0
  9
$DIMSE2
 70
     0
  9
$DIMTAD
 70
     1
  9
$DIMZIN
 70
     1
  9
$DIMBLK
  1

  9
$DIMASO
 70
     1
  9
$DIMSHO
 70
     1
  9
$DIMPOST
  1

  9
$DIMAPOST
  1

  9
$DIMALT
 70
     0
  9
$DIMALTD
 70
     3
  9
$DIMALTF
 40
0.0393700787
  9
$DIMLFAC
 40
1.0
  9
$DIMTOFL
 70
     1
  9
$DIMTVP
 40
0.0
  9
$DIMTIX
 70
     0
  9
$DIMSOXD
 70
     0
  9
$DIMSAH
 70
     0
  9
$DIMBLK1
  1

  9
$DIMBLK2
  1

  9
$DIMSTYLE
  2
ISO-25
  9
$DIMCLRD
 70
     0
  9
$DIMCLRE
 70
     0
  9
$DIMCLRT
 70
     0
  9
$DIMTFAC
 40
1.0
  9
$DIMGAP
 40
1.524
  9
$DIMJUST
 70
     0
  9
$DIMSD1
 70
     0
  9
$DIMSD2
 70
     0
  9
$DIMTOLJ
 70
     0
  9
$DIMTZIN
 70
     1
  9
$DIMALTZ
 70
     0
  9
$DIMALTTZ
 70
     0
  9
$DIMUPT
 70
     0
  9
$DIMDEC
 70
     2
  9
$DIMTDEC
 70
     2
  9
$DIMALTU
 70
     2
  9
$DIMALTTD
 70
     3
  9
$DIMTXSTY
  7
Standard
  9
$DIMAUNIT
 70
     0
  9
$DIMADEC
 70
     2
  9
$DIMALTRND
 40
0.0
  9
$DIMAZIN
 70
     0
  9
$DIMDSEP
 70
    44
  9
$DIMATFIT
 70
     3
  9
$DIMFRAC
 70
     0
  9
$DIMLDRBLK
  1

  9
$DIMLUNIT
 70
     2
  9
$DIMLWD
 70
    -2
  9
$DIMLWE
 70
    -2
  9
$DIMTMOVE
 70
     0
  9
$LUNITS
 70
     2
  9
$LUPREC
 70
     2
  9
$SKETCHINC
 40
1.0
  9
$FILLETRAD
 40
10.0
  9
$AUNITS
 70
     0
  9
$AUPREC
 70
     2
  9
$MENU
  1
.
  9
$ELEVATION
 40
0.0
  9
$PELEVATION
 40
0.0
  9
$THICKNESS
 40
0.0
  9
$LIMCHECK
 70
     0
  9
$CHAMFERA
 40
0.0
  9
$CHAMFERB
 40
0.0
  9
$CHAMFERC
 40
0.0
  9
$CHAMFERD
 40
0.0
  9
$SKPOLY
 70
     0
  9
$TDCREATE
 40
2460295.764910521
  9
$TDUCREATE
 40
2460295.681577187
  9
$TDUPDATE
 40
2460295.76498507
  9
$TDUUPDATE
 40
2460295.681651736
  9
$TDINDWG
 40
0.0000000116
  9
$TDUSRTIMER
 40
0.0000000116
  9
$USRTIMER
 70
     1
  9
$ANGBASE
 50
0.0
  9
$ANGDIR
 70
     0
  9
$PDMODE
 70
     0
  9
$PDSIZE
 40
-1.0
  9
$PLINEWID
 40
0.0
  9
$SPLFRAME
 70
     0
  9
$SPLINETYPE
 70
     6
  9
$SPLINESEGS
 70
     8
  9
$HANDSEED
  5
173
  9
$SURFTAB1
 70
     6
  9
$SURFTAB2
 70
     6
  9
$SURFTYPE
 70
     6
  9
$SURFU
 70
     6
  9
$SURFV
 70
     6
  9
$UCSBASE
  2

  9
$UCSNAME
  2

  9
$UCSORG
 10
0.0
 20
0.0
 30
0.0
  9
$UCSXDIR
 10
1.0
 20
0.0
 30
0.0
  9
$UCSYDIR
 10
0.0
 20
1.0
 30
0.0
  9
$UCSORTHOREF
  2

  9
$UCSORTHOVIEW
 70
     0
  9
$UCSORGTOP
 10
0.0
 20
0.0
 30
0.0
  9
$UCSORGBOTTOM
 10
0.0
 20
0.0
 30
0.0
  9
$UCSORGLEFT
 10
0.0
 20
0.0
 30
0.0
  9
$UCSORGRIGHT
 10
0.0
 20
0.0
 30
0.0
  9
$UCSORGFRONT
 10
0.0
 20
0.0
 30
0.0
  9
$UCSORGBACK
 10
0.0
 20
0.0
 30
0.0
  9
$PUCSBASE
  2

  9
$PUCSNAME
  2

  9
$PUCSORG
 10
0.0
 20
0.0
 30
0.0
  9
$PUCSXDIR
 10
1.0
 20
0.0
 30
0.0
  9
$PUCSYDIR
 10
0.0
 20
1.0
 30
0.0
  9
$PUCSORTHOREF
  2

  9
$PUCSORTHOVIEW
 70
     0
  9
$PUCSORGTOP
 10
0.0
 20
0.0
 30
0.0
  9
$PUCSORGBOTTOM
 10
0.0
 20
0.0
 30
0.0
  9
$PUCSORGLEFT
 10
0.0
 20
0.0
 30
0.0
  9
$PUCSORGRIGHT
 10
0.0
 20
0.0
 30
0.0
  9
$PUCSORGFRONT
 10
0.0
 20
0.0
 30
0.0
  9
$PUCSORGBACK
 10
0.0
 20
0.0
 30
0.0
  9
$USERI1
 70
     0
  9
$USERI2
 70
     0
  9
$USERI3
 70
     0
  9
$USERI4
 70
     0
  9
$USERI5
 70
     0
  9
$USERR1
 40
0.0
  9
$USERR2
 40
0.0
  9
$USERR3
 40
0.0
  9
$USERR4
 40
0.0
  9
$USERR5
 40
0.0
  9
$WORLDVIEW
 70
     1
  9
$SHADEDGE
 70
     3
  9
$SHADEDIF
 70
    70
  9
$TILEMODE
 70
     1
  9
$MAXACTVP
 70
    64
  9
$PINSBASE
 10
0.0
 20
0.0
 30
0.0
  9
$PLIMCHECK
 70
     0
  9
$PEXTMIN
 10
1.0000000000E+20
 20
1.0000000000E+20
 30
1.0000000000E+20
  9
$PEXTMAX
 10
-1.0000000000E+20
 20
-1.0000000000E+20
 30
-1.0000000000E+20
  9
$PLIMMIN
 10
0.0
 20
0.0
  9
$PLIMMAX
 10
420.0
 20
297.0
  9
$UNITMODE
 70
     0
  9
$VISRETAIN
 70
     1
  9
$PLINEGEN
 70
     0
  9
$PSLTSCALE
 70
     1
  9
$TREEDEPTH
 70
  3020
  9
$CMLSTYLE
  2
Standard
  9
$CMLJUST
 70
     0
  9
$CMLSCALE
 40
20.0
  9
$PROXYGRAPHICS
 70
     1
  9
$MEASUREMENT
 70
     1
  9
$CELWEIGHT
370
    -1
  9
$ENDCAPS
280
     0
  9
$JOINSTYLE
280
     0
  9
$LWDISPLAY
290
     1
  9
$INSUNITS
 70
     4
  9
$HYPERLINKBASE
  1

  9
$STYLESHEET
  1

  9
$XEDIT
290
     1
  9
$CEPSNTYPE
380
     0
  9
$PSTYLEMODE
290
     1
  9
$FINGERPRINTGUID
  2
{ede961b2-14ea-45f6-9a80-ca8165c3dae2}
  9
$VERSIONGUID
  2
{FAEB1C32-E019-11D5-929B-00C0DF256EC4}
  9
$EXTNAMES
290
     1
  9
$PSVPSCALE
 40
0.0
  9
$OLESTARTUP
290
     0
  0
ENDSEC
  0
SECTION
  2
CLASSES
  0
CLASS
  1
ACDBDICTIONARYWDFLT
  2
AcDbDictionaryWithDefault
  3
ObjectDBX Classes
 90
        0
280
     0
281
     0
  0
CLASS
  1
VISUALSTYLE
  2
AcDbVisualStyle
  3
ObjectDBX Classes
 90
     4095
280
     0
281
     0
  0
CLASS
  1
MATERIAL
  2
AcDbMaterial
  3
ObjectDBX Classes
 90
     1153
280
     0
281
     0
  0
CLASS
  1
SCALE
  2
AcDbScale
  3
ObjectDBX Classes
 90
     1153
280
     0
281
     0
  0
CLASS
  1
TABLESTYLE
  2
AcDbTableStyle
  3
ObjectDBX Classes
 90
     4095
280
     0
281
     0
  0
CLASS
  1
MLEADERSTYLE
  2
AcDbMLeaderStyle
  3
ACDB_MLEADERSTYLE_CLASS
 90
     4095
280
     0
281
     0
  0
CLASS
  1
SUN
  2
AcDbSun
  3
SCENEOE
 90
     1153
280
     0
281
     0
  0
CLASS
  1
ACDBPLACEHOLDER
  2
AcDbPlaceHolder
  3
ObjectDBX Classes
 90
        0
280
     0
281
     0
  0
CLASS
  1
LAYOUT
  2
AcDbLayout
  3
ObjectDBX Classes
 90
        0
280
     0
281
     0
  0
ENDSEC
  0
SECTION
  2
TABLES
  0
TABLE
  2
VPORT
  5
8
330
0
100
AcDbSymbolTable
 70
     1
  0
VPORT
  5
29
330
8
100
AcDbSymbolTableRecord
100
AcDbViewportTableRecord
  2
*Active
 70
     0
 10
0.0
 20
0.0
 11
1.0
 21
1.0
 12
0.0
 22
0.0
 13
0.0
 23
0.0
 14
10.0
 24
10.0
 15
10.0
 25
10.0
 16
0.0
 26
0.0
 36
1.0
 17
0.0
 27
0.0
 37
0.0
 40
204.0
 41
1.0
 42
50.0
 43
0.0
 44
0.0
 50
0.0
 51
0.0
 71
     0
 72
   100
 73
     1
 74
     3
 75
     0
 76
     0
 77
     0
 78
     0
281
     0
 65
     1
110
0.0
120
0.0
130
0.0
111
1.0
121
0.0
131
0.0
112
0.0
122
1.0
132
0.0
 79
     0
146
0.0
  0
ENDTAB
  0
TABLE
  2
LTYPE
  5
5
330
0
100
AcDbSymbolTable
 70
     6
  0
LTYPE
  5
14
330
5
100
AcDbSymbolTableRecord
100
AcDbLinetypeTableRecord
  2
ByBlock
 70
     0
  3

 72
    65
 73
     0
 40
0.0
  0
LTYPE
  5
15
330
5
100
AcDbSymbolTableRecord
100
AcDbLinetypeTableRecord
  2
ByLayer
 70
     0
  3

 72
    65
 73
     0
 40
0.0
  0
LTYPE
  5
16
330
5
100
AcDbSymbolTableRecord
100
AcDbLinetypeTableRecord
  2
Continuous
 70
     0
  3
Solid line
 72
    65
 73
     0
 40
0.0
  0
LTYPE
  5
6E
330
5
100
AcDbSymbolTableRecord
100
AcDbLinetypeTableRecord
  2
HIDDEN
 70
     0
  3
Hidden __ __ __ __ __ __ __ __ __ __ __ __ __ __
 72
    65
 73
     2
 40
1.905
 49
1.27
 74
     0
 49
-0.635
 74
     0
  0
LTYPE
  5
6F
330
5
100
AcDbSymbolTableRecord
100
AcDbLinetypeTableRecord
  2
PHANTOM
 70
     0
  3
Phantom ______  __  __  ______  __  __  ______
 72
    65
 73
     6
 40
12.7
 49
6.35
 74
     0
 49
-1.27
 74
     0
 49
1.27
 74
     0
 49
-1.27
 74
     0
 49
1.27
 74
     0
 49
-1.27
 74
     0
  0
LTYPE
  5
70
330
5
100
AcDbSymbolTableRecord
100
AcDbLinetypeTableRecord
  2
CENTER
 70
     0
  3
Center ____ _ ____ _ ____ _ ____ _ ____ _ ____
 72
    65
 73
     4
 40
10.16
 49
6.35
 74
     0
 49
-1.27
 74
     0
 49
1.27
 74
     0
 49
-1.27
 74
     0
  0
LTYPE
  5
71
330
5
100
AcDbSymbolTableRecord
100
AcDbLinetypeTableRecord
  2
CENTERX2
 70
     0
  3
Center (2x) ________  __  ________  __  _____
 72
    65
 73
     4
 40
20.32
 49
12.7
 74
     0
 49
-2.54
 74
     0
 49
2.54
 74
     0
 49
-2.54
 74
     0
  0
LTYPE
  5
72
330
5
100
AcDbSymbolTableRecord
100
AcDbLinetypeTableRecord
  2
DOT2
 70
     0
  3
Dot (.5x) ........................................
 72
    65
 73
     2
 40
0.635
 49
0.0
 74
     0
 49
-0.635
 74
     0
  0
ENDTAB
  0
TABLE
  2
LAYER
  5
2
330
0
100
AcDbSymbolTable
 70
     1
  0
LAYER
  5
10
330
2
100
AcDbSymbolTableRecord
100
AcDbLayerTableRecord
  2
0
 70
     0
 62
     7
  6
Continuous
370
    -3
390
F
  0
ENDTAB
  0
TABLE
  2
STYLE
  5
3
330
0
100
AcDbSymbolTable
 70
     1
  0
STYLE
  5
11
330
3
100
AcDbSymbolTableRecord
100
AcDbTextStyleTableRecord
  2
Standard
 70
     0
 40
0.0
 41
1.0
 50
0.0
 71
     0
 42
3.5
  3
txt
  4

  0
ENDTAB
  0
TABLE
  2
VIEW
  5
6
330
0
100
AcDbSymbolTable
 70
     0
  0
ENDTAB
  0
TABLE
  2
UCS
  5
7
330
0
100
AcDbSymbolTable
 70
     0
  0
ENDTAB
  0
TABLE
  2
APPID
  5
9
330
0
100
AcDbSymbolTable
 70
     1
  0
APPID
  5
12
330
9
100
AcDbSymbolTableRecord
100
AcDbRegAppTableRecord
  2
ACAD
 70
     0
  0
ENDTAB
  0
TABLE
  2
DIMSTYLE
  5
A
330
0
100
AcDbSymbolTable
 70
     1
100
AcDbDimStyleTable
  0
DIMSTYLE
105
27
330
A
100
AcDbSymbolTableRecord
100
AcDbDimStyleTableRecord
  2
ISO-25
 70
     0
 41
2.5
 42
0.625
 43
3.75
 44
1.25
 73
     0
 74
     0
 77
     1
 78
     8
140
2.5
141
2.5
143
0.0393700787
147
0.625
171
     3
172
     1
178
     0
271
     2
272
     2
274
     3
278
    44
283
     0
284
     8
340
11
  0
ENDTAB
  0
TABLE
  2
BLOCK_RECORD
  5
1
330
0
100
AcDbSymbolTable
 70
     1
  0
BLOCK_RECORD
  5
1F
330
1
100
AcDbSymbolTableRecord
100
AcDbBlockTableRecord
  2
*Model_Space
340
22
  0
BLOCK_RECORD
  5
1B
330
1
100
AcDbSymbolTableRecord
100
AcDbBlockTableRecord
  2
*Paper_Space
340
1E
  0
BLOCK_RECORD
  5
23
330
1
100
AcDbSymbolTableRecord
100
AcDbBlockTableRecord
  2
*Paper_Space0
340
26
  0
ENDTAB
  0
ENDSEC
  0
SECTION
  2
BLOCKS
  0
BLOCK
  5
20
330
1F
100
AcDbEntity
  8
0
100
AcDbBlockBegin
  2
*Model_Space
 70
     0
 10
0.0
 20
0.0
 30
0.0
  3
*Model_Space
  1

  0
ENDBLK
  5
21
330
1F
100
AcDbEntity
  8
0
100
AcDbBlockEnd
  0
BLOCK
  5
1C
330
1B
100
AcDbEntity
 67
     1
  8
0
100
AcDbBlockBegin
  2
*Paper_Space
 70
     0
 10
0.0
 20
0.0
 30
0.0
  3
*Paper_Space
  1

  0
ENDBLK
  5
1D
330
1B
100
AcDbEntity
 67
     1
  8
0
100
AcDbBlockEnd
  0
BLOCK
  5
24
330
23
100
AcDbEntity
  8
0
100
AcDbBlockBegin
  2
*Paper_Space0
 70
     0
 10
0.0
 20
0.0
 30
0.0
  3
*Paper_Space0
  1

  0
ENDBLK
  5
25
330
23
100
AcDbEntity
  8
0
100
AcDbBlockEnd
  0
ENDSEC
  0
SECTION
  2
ENTITIES
  0
CIRCLE
  5
87
330
1F
100
AcDbEntity
  8
0
  6
Continuous
 62
     7
370
    25
100
AcDbCircle
 10
-90.0
 20
0.0
 30
0.0
 40
1.499999999999986
  0
CIRCLE
  5
88
330
1F
100
AcDbEntity
  8
0
  6
Continuous
 62
     7
370
    25
100
AcDbCircle
 10
90.0
 20
0.0
 30
0.0
 40
1.500000000000028
  0
CIRCLE
  5
89
330
1F
100
AcDbEntity
  8
0
  6
Continuous
 62
     7
370
    25
100
AcDbCircle
 10
90.0
 20
60.0
 30
0.0
 40
1.499999999999972
  0
CIRCLE
  5
8A
330
1F
100
AcDbEntity
  8
0
  6
Continuous
 62
     7
370
    25
100
AcDbCircle
 10
-90.0
 20
60.0
 30
0.0
 40
1.500000000000014
  0
CIRCLE
  5
8B
330
1F
100
AcDbEntity
  8
0
  6
Continuous
 62
     7
370
    25
100
AcDbCircle
 10
90.0
 20
-60.0
 30
0.0
 40
1.5
  0
CIRCLE
  5
8C
330
1F
100
AcDbEntity
  8
0
  6
Continuous
 62
     7
370
    25
100
AcDbCircle
 10
-90.0
 20
-60.0
 30
0.0
 40
1.499999999999972
  0
SPLINE
  5
99
330
1F
100
AcDbEntity
  8
0
  6
Continuous
 62
     7
370
    25
100
AcDbSpline
210
0.0
220
0.0
230
1.0
 70
     8
 71
     3
 72
    13
 73
     9
 74
     0
 42
0.00000001
 43
0.00000001
 40
0.0
 40
0.0
 40
0.0
 40
0.0
 40
0.1038798927636206
 40
0.2143061432444221
 40
0.3332213273395191
 40
0.4597871157601855
 40
0.7250086367800915
 40
1.0
 40
1.0
 40
1.0
 40
1.0
 10
42.81963897225221
 20
-5.059456268787767
 30
0.0
 10
42.73253121895679
 20
-5.098727844519306
 30
0.0
 10
42.55282631015494
 20
-5.179745832796484
 30
0.0
 10
42.26286247652833
 20
-5.279707885891357
 30
0.0
 10
41.94819838184732
 20
-5.370066710874477
 30
0.0
 10
41.48935312810614
 20
-5.470397720062116
 30
0.0
 10
40.88199721807569
 20
-5.563649715306414
 30
0.0
 10
40.38519317305973
 20
-5.579299805792006
 30
0.0
 10
40.13229875758435
 20
-5.58726636831338
 30
0.0
  0
SPLINE
  5
9A
330
1F
100
AcDbEntity
  8
0
  6
Continuous
 62
     7
370
    25
100
AcDbSpline
210
0.0
220
0.0
230
1.0
 70
     8
 71
     3
 72
    23
 73
    19
 74
     0
 42
0.00000001
 43
0.00000001
 40
0.0
 40
0.0
 40
0.0
 40
0.0
 40
0.0658481387443124
 40
0.1285663156420547
 40
0.1887394998209949
 40
0.246596828689538
 40
0.3031045871031452
 40
0.3589574566213091
 40
0.4148745320209529
 40
0.4715724651794054
 40
0.5293288124277524
 40
0.5879913881429895
 40
0.648735912614384
 40
0.7117879256881859
 40
0.778152922288032
 40
0.8479967623059982
 40
0.9217258914326716
 40
1.0
 40
1.0
 40
1.0
 40
1.0
 10
40.13229875758435
 20
-5.58726636831338
 30
0.0
 10
39.94342095272685
 20
-5.582175073430685
 30
0.0
 10
39.5746432782146
 20
-5.572234488360287
 30
0.0
 10
39.03691994318022
 20
-5.501294649899682
 30
0.0
 10
38.53123882385853
 20
-5.383610774483051
 30
0.0
 10
38.0572692640857
 20
-5.219679640049129
 30
0.0
 10
37.61499430040428
 20
-5.01057269155673
 30
0.0
 10
37.20426473424941
 20
-4.755335058257748
 30
0.0
 10
36.82357034899404
 20
-4.455858415848939
 30
0.0
 10
36.48041864754745
 20
-4.106530051543014
 30
0.0
 10
36.16916991016942
 20
-3.718457297815255
 30
0.0
 10
35.90062799047519
 20
-3.285793384568215
 30
0.0
 10
35.67214990431158
 20
-2.813992418265833
 30
0.0
 10
35.48671748956835
 20
-2.300182738049406
 30
0.0
 10
35.34109884169262
 20
-1.746855605665555
 30
0.0
 10
35.2356570109909
 20
-1.153588887869207
 30
0.0
 10
35.16616120481333
 20
-0.5203987193477746
 30
0.0
 10
35.15622451517138
 20
-0.0843998353025639
 30
0.0
 10
35.15110761413931
 20
0.140117908547675
 30
0.0
  0
SPLINE
  5
9B
330
1F
100
AcDbEntity
  8
0
  6
Continuous
 62
     7
370
    25
100
AcDbSpline
210
0.0
220
0.0
230
1.0
 70
     8
 71
     3
 72
    23
 73
    19
 74
     0
 42
0.00000001
 43
0.00000001
 40
0.0
 40
0.0
 40
0.0
 40
0.0
 40
0.0812536854378981
 40
0.1577186482227147
 40
0.2294579773586605
 40
0.2976490707028211
 40
0.3619221711402325
 40
0.423825306345168
 40
0.4833862278975069
 40
0.5416896939280336
 40
0.598877408993656
 40
0.6544445721351457
 40
0.7097438037608657
 40
0.7651535725506683
 40
0.8213049400077075
 40
0.878804555556541
 40
0.9381746368315468
 40
1.0
 40
1.0
 40
1.0
 40
1.0
 10
35.15110761413931
 20
0.140117908547675
 30
0.0
 10
35.15813099925754
 20
0.3759138058963025
 30
0.0
 10
35.17176384311963
 20
0.8336088628757335
 30
0.0
 10
35.24588597778239
 20
1.496112362108488
 30
0.0
 10
35.35901409643447
 20
2.114601153696896
 30
0.0
 10
35.52058349464435
 20
2.68555658728151
 30
0.0
 10
35.71623070415643
 20
3.215489689965646
 30
0.0
 10
35.95841868827282
 20
3.698414045273857
 30
0.0
 10
36.24433043077932
 20
4.136269158109944
 30
0.0
 10
36.57264372146449
 20
4.525551447803664
 30
0.0
 10
36.93304117440899
 20
4.868211443642075
 30
0.0
 10
37.31906692872104
 20
5.167838134536351
 30
0.0
 10
37.73229707582878
 20
5.419008904636121
 30
0.0
 10
38.1712082845987
 20
5.625737092132725
 30
0.0
 10
38.63573880091306
 20
5.786511659356699
 30
0.0
 10
39.12516265220135
 20
5.902196695103235
 30
0.0
 10
39.64040562260102
 20
5.970501555407766
 30
0.0
 10
39.9922394773337
 20
5.978745470588341
 30
0.0
 10
40.17172028161388
 20
5.982950934352341
 30
0.0
  0
SPLINE
  5
9C
330
1F
100
AcDbEntity
  8
0
  6
Continuous
 62
     7
370
    25
100
AcDbSpline
210
0.0
220
0.0
230
1.0
 70
     8
 71
     3
 72
    15
 73
    11
 74
     0
 42
0.00000001
 43
0.00000001
 40
0.0
 40
0.0
 40
0.0
 40
0.0
 40
0.1510454794427328
 40
0.2941102168467574
 40
0.4296416360337845
 40
0.5581658608133314
 40
0.6794731619076106
 40
0.7938774894058026
 40
0.9000323013670984
 40
0.9999999999999999
 40
0.9999999999999999
 40
0.9999999999999999
 40
0.9999999999999999
 10
40.17172028161388
 20
5.982950934352341
 30
0.0
 10
40.30694613163973
 20
5.980718232026725
 30
0.0
 10
40.5702529463893
 20
5.976370795959366
 30
0.0
 10
40.95379412456574
 20
5.944735185426051
 30
0.0
 10
41.31518929760569
 20
5.895545801679618
 30
0.0
 10
41.65265412011538
 20
5.823112627178394
 30
0.0
 10
41.96886821511414
 20
5.742955613431196
 30
0.0
 10
42.26010952951902
 20
5.648762605865254
 30
0.0
 10
42.5307692158111
 20
5.55268475500803
 30
0.0
 10
42.6980451034047
 20
5.474567474027666
 30
0.0
 10
42.77917251385249
 20
5.436681244228917
 30
0.0
  0
SPLINE
  5
9E
330
1F
100
AcDbEntity
  8
0
  6
Continuous
 62
     7
370
    25
100
AcDbSpline
210
0.0
220
0.0
230
1.0
 70
     8
 71
     3
 72
    15
 73
    11
 74
     0
 42
0.00000001
 43
0.00000001
 40
0.0
 40
0.0
 40
0.0
 40
0.0
 40
0.0622161018965256
 40
0.1423789148486481
 40
0.239903503281845
 40
0.3563166272346898
 40
0.4897733756382875
 40
0.6418939062729465
 40
0.8115812516791847
 40
1.0
 40
1.0
 40
1.0
 40
1.0
 10
43.26729435610145
 20
7.215000052330352
 30
0.0
 10
43.20636676275917
 20
7.243624091180839
 30
0.0
 10
43.0669365451791
 20
7.309128992096937
 30
0.0
 10
42.82114626011266
 20
7.393631367582841
 30
0.0
 10
42.51471180056583
 20
7.47864112305344
 30
0.0
 10
42.15121226929411
 20
7.573898039756351
 30
0.0
 10
41.7238621924918
 20
7.65610071605714
 30
0.0
 10
41.23437463071894
 20
7.711371956597061
 30
0.0
 10
40.68390891823771
 20
7.751996896281343
 30
0.0
 10
40.29664006678418
 20
7.758912495660303
 30
0.0
 10
40.09287723355483
 20
7.762551161970919
 30
0.0
  0
SPLINE
  5
9F
330
1F
100
AcDbEntity
  8
0
  6
Continuous
 62
     7
370
    25
100
AcDbSpline
210
0.0
220
0.0
230
1.0
 70
     8
 71
     3
 72
    23
 73
    19
 74
     0
 42
0.00000001
 43
0.00000001
 40
0.0
 40
0.0
 40
0.0
 40
0.0
 40
0.0645368137490964
 40
0.1264512164128282
 40
0.1864649688635136
 40
0.2445916785392942
 40
0.3019181771250926
 40
0.3588408383343799
 40
0.4158558631180556
 40
0.473707492090899
 40
0.5321875993055624
 40
0.5914186887105222
 40
0.6520869140066544
 40
0.7147615219801222
 40
0.7804269185069017
 40
0.8494315435242654
 40
0.9224677898588461
 40
0.9999999999999999
 40
0.9999999999999999
 40
0.9999999999999999
 40
0.9999999999999999
 10
40.09287723355483
 20
7.762551161970919
 30
0.0
 10
39.83540580293327
 20
7.756877515709856
 30
0.0
 10
39.33092512435152
 20
7.745760768081185
 30
0.0
 10
38.59199263802074
 20
7.650377227757692
 30
0.0
 10
37.88963691817204
 20
7.496707486497938
 30
0.0
 10
37.22242103880876
 20
7.281843994575055
 30
0.0
 10
36.59155204856339
 20
7.005490246518882
 30
0.0
 10
35.9978012349447
 20
6.665357078582432
 30
0.0
 10
35.43956539466096
 20
6.266142080427538
 30
0.0
 10
34.92098913485823
 20
5.807048682515242
 30
0.0
 10
34.4482892137305
 20
5.288441873551622
 30
0.0
 10
34.03504933314964
 20
4.707183131814963
 30
0.0
 10
33.68535829174508
 20
4.066714323047436
 30
0.0
 10
33.39781433537194
 20
3.368447852589208
 30
0.0
 10
33.17096538075419
 20
2.613604271958847
 30
0.0
 10
33.00264993552788
 20
1.801593520396685
 30
0.0
 10
32.89543568823892
 20
0.93125558056978
 30
0.0
 10
32.87326153384514
 20
0.3309623230261984
 30
0.0
 10
32.86184339728186
 20
0.0218533364590989
 30
0.0
  0
SPLINE
  5
A0
330
1F
100
AcDbEntity
  8
0
  6
Continuous
 62
     7
370
    25
100
AcDbSpline
210
0.0
220
0.0
230
1.0
 70
     8
 71
     3
 72
    23
 73
    19
 74
     0
 42
0.00000001
 43
0.00000001
 40
0.0
 40
0.0
 40
0.0
 40
0.0
 40
0.0761547248997541
 40
0.1480771804759032
 40
0.2163557301867423
 40
0.2814845594360729
 40
0.3437726745383675
 40
0.4039527888451419
 40
0.462919657236786
 40
0.5211217678443317
 40
0.5787430004014199
 40
0.6356066415736384
 40
0.6924602817814007
 40
0.749823313280233
 40
0.8087002772277488
 40
0.869710160630359
 40
0.9333773752620645
 40
1.0
 40
1.0
 40
1.0
 40
1.0
 10
32.86184339728186
 20
0.0218533364590989
 30
0.0
 10
32.86934824179615
 20
-0.2703535858457259
 30
0.0
 10
32.88394085199925
 20
-0.838528143988992
 30
0.0
 10
32.98310338112423
 20
-1.663718183830649
 30
0.0
 10
33.12960011027509
 20
-2.438350501939957
 30
0.0
 10
33.33406250251618
 20
-3.162021884216033
 30
0.0
 10
33.597405715234
 20
-3.83290971596606
 30
0.0
 10
33.91216179373492
 20
-4.455278879313202
 30
0.0
 10
34.28959872756168
 20
-5.023076253069378
 30
0.0
 10
34.71756066522343
 20
-5.541129765014604
 30
0.0
 10
35.1979485231539
 20
-5.99930383298533
 30
0.0
 10
35.7181153687299
 20
-6.403274900683821
 30
0.0
 10
36.28196046006221
 20
-6.742218416944866
 30
0.0
 10
36.88670943195102
 20
-7.019591456109965
 30
0.0
 10
37.53249403598502
 20
-7.236475046858517
 30
0.0
 10
38.21990604055199
 20
-7.393747005190651
 30
0.0
 10
38.94884025535875
 20
-7.490218278755213
 30
0.0
 10
39.44869637428727
 20
-7.505483602997921
 30
0.0
 10
39.7042936395495
 20
-7.513289399470196
 30
0.0
  0
SPLINE
  5
A1
330
1F
100
AcDbEntity
  8
0
  6
Continuous
 62
     7
370
    25
100
AcDbSpline
210
0.0
220
0.0
230
1.0
 70
     8
 71
     3
 72
    15
 73
    11
 74
     0
 42
0.00000001
 43
0.00000001
 40
0.0
 40
0.0
 40
0.0
 40
0.0
 40
0.1649872852109778
 40
0.3185405801961251
 40
0.4624374818868115
 40
0.5955674813581499
 40
0.7173118421096085
 40
0.8249846835785157
 40
0.9191349145285239
 40
0.9999999999999999
 40
0.9999999999999999
 40
0.9999999999999999
 40
0.9999999999999999
 10
39.7042936395495
 20
-7.513289399470197
 30
0.0
 10
39.90148920172544
 20
-7.510744702067139
 30
0.0
 10
40.28221422976199
 20
-7.505831660518771
 30
0.0
 10
40.83349954876235
 20
-7.463822032348864
 30
0.0
 10
41.3451272920869
 20
-7.407563175172102
 30
0.0
 10
41.81501605924414
 20
-7.326117788096047
 30
0.0
 10
42.23696549877612
 20
-7.227072740709495
 30
0.0
 10
42.60989734529177
 20
-7.124729859737507
 30
0.0
 10
42.92990253880256
 20
-7.014675733246245
 30
0.0
 10
43.11955124887582
 20
-6.926227821186078
 30
0.0
 10
43.20717763188733
 20
-6.885360838142754
 30
0.0
  0
SPLINE
  5
A5
330
1F
100
AcDbEntity
  8
0
  6
Continuous
 62
     7
370
    25
100
AcDbSpline
210
0.0
220
0.0
230
1.0
 70
     8
 71
     3
 72
    13
 73
     9
 74
     0
 42
0.00000001
 43
0.00000001
 40
0.0
 40
0.0
 40
0.0
 40
0.0
 40
0.1369356704291147
 40
0.2688628996952891
 40
0.3963939138930911
 40
0.5195361569247533
 40
0.7602574683730146
 40
1.0
 40
1.0
 40
1.0
 40
1.0
 10
28.53954937010432
 20
2.07565534212791
 30
0.0
 10
28.53861615576006
 20
1.784326178764208
 30
0.0
 10
28.53678385951578
 20
1.212323256645284
 30
0.0
 10
28.55002579327389
 20
0.3690869022569266
 30
0.0
 10
28.56648862767528
 20
-0.4447093551181883
 30
0.0
 10
28.59547626583844
 20
-1.489733663411539
 30
0.0
 10
28.65569792611657
 20
-2.772687348224342
 30
0.0
 10
28.73413136294952
 20
-3.791877993578018
 30
0.0
 10
28.77326819079109
 20
-4.300435191063873
 30
0.0
  0
SPLINE
  5
A7
330
1F
100
AcDbEntity
  8
0
  6
Continuous
 62
     7
370
    25
100
AcDbSpline
210
0.0
220
0.0
230
1.0
 70
     8
 71
     3
 72
    11
 73
     7
 74
     0
 42
0.00000001
 43
0.00000001
 40
0.0
 40
0.0
 40
0.0
 40
0.0
 40
0.2389605452973337
 40
0.4875677355295214
 40
0.7426723198332973
 40
0.9999999999999999
 40
0.9999999999999999
 40
0.9999999999999999
 40
0.9999999999999999
 10
28.71682798566372
 20
-4.31865554668745
 30
0.0
 10
28.54631902084013
 20
-3.910427772753198
 30
0.0
 10
28.1984177814825
 20
-3.077492398130075
 30
0.0
 10
27.60966189602015
 20
-1.834790144614361
 30
0.0
 10
26.97856165308113
 20
-0.57494457087013
 30
0.0
 10
26.51624280071254
 20
0.2534822556321276
 30
0.0
 10
26.28408053064105
 20
0.6694926598013028
 30
0.0
  0
SPLINE
  5
AD
330
1F
100
AcDbEntity
  8
0
  6
Continuous
 62
     7
370
    25
100
AcDbSpline
210
0.0
220
0.0
230
1.0
 70
     8
 71
     3
 72
    13
 73
     9
 74
     0
 42
0.00000001
 43
0.00000001
 40
0.0
 40
0.0
 40
0.0
 40
0.0
 40
0.1465806992210698
 40
0.2858629774101907
 40
0.4178006436075734
 40
0.541968274476581
 40
0.776955459055378
 40
1.0
 40
1.0
 40
1.0
 40
1.0
 10
21.99558188085768
 20
-1.794008863632787
 30
0.0
 10
21.99480620320008
 20
-1.475934948606511
 30
0.0
 10
21.99329346976455
 20
-0.8556243833744854
 30
0.0
 10
21.98836550766261
 20
0.0509774006194067
 30
0.0
 10
21.97737551741157
 20
0.9088985869616629
 30
0.0
 10
21.95441634293481
 20
1.974297369477273
 30
0.0
 10
21.91877403008383
 20
3.237259652271005
 30
0.0
 10
21.86438246764627
 20
4.229722115574682
 30
0.0
 10
21.83789578473958
 20
4.713014695972629
 30
0.0
  0
SPLINE
  5
AF
330
1F
100
AcDbEntity
  8
0
  6
Continuous
 62
     7
370
    25
100
AcDbSpline
210
0.0
220
0.0
230
1.0
 70
     8
 71
     3
 72
    11
 73
     7
 74
     0
 42
0.00000001
 43
0.00000001
 40
0.0
 40
0.0
 40
0.0
 40
0.0
 40
0.2460268533061611
 40
0.4975033781449058
 40
0.7504773575594432
 40
1.0
 40
1.0
 40
1.0
 40
1.0
 10
21.91684882589022
 20
4.733905133894804
 30
0.0
 10
22.0974464651051
 20
4.304028829262772
 30
0.0
 10
22.46264211097464
 20
3.434754151052152
 30
0.0
 10
23.07520871154219
 20
2.150814358128365
 30
0.0
 10
23.72483373138225
 20
0.878160881189109
 30
0.0
 10
24.17805599099846
 20
0.0406844406939545
 30
0.0
 10
24.40311066980369
 20
-0.375177726981122
 30
0.0
  0
SPLINE
  5
BB
330
1F
100
AcDbEntity
  8
0
  6
Continuous
 62
     7
370
    25
100
AcDbSpline
210
0.0
220
0.0
230
1.0
 70
     8
 71
     3
 72
    19
 73
    15
 74
     0
 42
0.00000001
 43
0.00000001
 40
0.0
 40
0.0
 40
0.0
 40
0.0
 40
0.1239689973149172
 40
0.2459310998726402
 40
0.3659951630048026
 40
0.4877413395698202
 40
0.549071452143403
 40
0.6102421637011228
 40
0.6717339552351319
 40
0.733814967291144
 40
0.7973503358775944
 40
0.8630144238753796
 40
0.9303040264477723
 40
1.0
 40
1.0
 40
1.0
 40
1.0
 10
1.999346545982973
 20
-0.1828850544182952
 30
0.0
 10
2.186126681534581
 20
-0.1046140304557569
 30
0.0
 10
2.556663228296183
 20
0.0506609127009267
 30
0.0
 10
3.064967431736627
 20
0.3694678649189307
 30
0.0
 10
3.520274736631679
 20
0.7523789615410078
 30
0.0
 10
3.856641497923482
 20
1.117185715171443
 30
0.0
 10
4.093527475251974
 20
1.438196207171458
 30
0.0
 10
4.2484878405142
 20
1.695729906228792
 30
0.0
 10
4.382371582543382
 20
1.966351861756196
 30
0.0
 10
4.487590048786124
 20
2.253268892456179
 30
0.0
 10
4.577732777159036
 20
2.552484931974468
 30
0.0
 10
4.635984825877162
 20
2.868071269683662
 30
0.0
 10
4.681775289242916
 20
3.195890748024294
 30
0.0
 10
4.688783164922611
 20
3.419444422086289
 30
0.0
 10
4.692348655040965
 20
3.533184798231831
 30
0.0
  0
SPLINE
  5
BC
330
1F
100
AcDbEntity
  8
0
  6
Continuous
 62
     7
370
    25
100
AcDbSpline
210
0.0
220
0.0
230
1.0
 70
     8
 71
     3
 72
    15
 73
    11
 74
     0
 42
0.00000001
 43
0.00000001
 40
0.0
 40
0.0
 40
0.0
 40
0.0
 40
0.1368901302578811
 40
0.2678994843750009
 40
0.3939427106245456
 40
0.51673265963192
 40
0.6366814820163378
 40
0.756113288215949
 40
0.8770991653810387
 40
1.0
 40
1.0
 40
1.0
 40
1.0
 10
4.692348655040965
 20
3.533184798231832
 30
0.0
 10
4.688892133339858
 20
3.678911564144027
 30
0.0
 10
4.682127581507572
 20
3.964104699499861
 30
0.0
 10
4.619571013943179
 20
4.379379053570776
 30
0.0
 10
4.529234791398673
 20
4.773812461025877
 30
0.0
 10
4.396026583990239
 20
5.143891762703849
 30
0.0
 10
4.225787029375069
 20
5.490384869807185
 30
0.0
 10
4.018900417417202
 20
5.814086362712611
 30
0.0
 10
3.773225758546185
 20
6.113982014503232
 30
0.0
 10
3.584896278080667
 20
6.292724732869148
 30
0.0
 10
3.489992172140438
 20
6.382797820937529
 30
0.0
  0
SPLINE
  5
BD
330
1F
100
AcDbEntity
  8
0
  6
Continuous
 62
     7
370
    25
100
AcDbSpline
210
0.0
220
0.0
230
1.0
 70
     8
 71
     3
 72
    15
 73
    11
 74
     0
 42
0.00000001
 43
0.00000001
 40
0.0
 40
0.0
 40
0.0
 40
0.0
 40
0.1034026641018989
 40
0.2097876866054638
 40
0.3218443006975876
 40
0.440604423813223
 40
0.566457458471611
 40
0.7012197646693192
 40
0.8455240434288386
 40
1.0
 40
1.0
 40
1.0
 40
1.0
 10
3.489992172140438
 20
6.382797820937529
 30
0.0
 10
3.369519458078209
 20
6.482017927616722
 30
0.0
 10
3.125099334073564
 20
6.683319865296612
 30
0.0
 10
2.703048749298289
 20
6.92617872545161
 30
0.0
 10
2.239428437279238
 20
7.13564996355291
 30
0.0
 10
1.727754596708431
 20
7.303935689007733
 30
0.0
 10
1.169060735610333
 20
7.428451907137447
 30
0.0
 10
0.5649940339868894
 20
7.517998600736542
 30
0.0
 10
-0.0870883855548588
 20
7.568831285535045
 30
0.0
 10
-0.5374838696120627
 20
7.570310435191127
 30
0.0
 10
-0.7703482461932782
 20
7.571075188113226
 30
0.0
  0
SPLINE
  5
BE
330
1F
100
AcDbEntity
  8
0
  6
Continuous
 62
     7
370
    25
100
AcDbSpline
210
0.0
220
0.0
230
1.0
 70
     8
 71
     3
 72
    13
 73
     9
 74
     0
 42
0.00000001
 43
0.00000001
 40
0.0
 40
0.0
 40
0.0
 40
0.0
 40
0.2717980594490438
 40
0.5356982292475398
 40
0.6622984551229057
 40
0.7813947303233134
 40
0.8939736611827931
 40
1.0
 40
1.0
 40
1.0
 40
1.0
 10
-0.7703482461932781
 20
7.571075188113225
 30
0.0
 10
-1.104574781683525
 20
7.56534151839238
 30
0.0
 10
-1.763315920573929
 20
7.55404078753811
 30
0.0
 10
-2.576551533973158
 20
7.500969064523136
 30
0.0
 10
-3.199708196037324
 20
7.434422961398029
 30
0.0
 10
-3.637640092795651
 20
7.385752353678369
 30
0.0
 10
-4.048753739104897
 20
7.326351909157226
 30
0.0
 10
-4.313686072652859
 20
7.280673452180057
 30
0.0
 10
-4.442181627229077
 20
7.258518819021986
 30
0.0
  0
SPLINE
  5
C3
330
1F
100
AcDbEntity
  8
0
  6
Continuous
 62
     7
370
    25
100
AcDbSpline
210
0.0
220
0.0
230
1.0
 70
     8
 71
     3
 72
    23
 73
    19
 74
     0
 42
0.00000001
 43
0.00000001
 40
0.0
 40
0.0
 40
0.0
 40
0.0
 40
0.065912619997384
 40
0.1279753118719066
 40
0.1873438051907517
 40
0.2440687307324678
 40
0.2982081365197671
 40
0.351391664279186
 40
0.4031374221458375
 40
0.4552070353053065
 40
0.5091869726879238
 40
0.5661999208149703
 40
0.6267865589575565
 40
0.6913979127715834
 40
0.7612566295235983
 40
0.8357930685131719
 40
0.9152584258787063
 40
1.0
 40
1.0
 40
1.0
 40
1.0
 10
-0.7882276232328983
 20
-1.025635623295581
 30
0.0
 10
-0.6939471739464679
 20
-1.026835913809895
 30
0.0
 10
-0.5108931563496361
 20
-1.029166386379675
 30
0.0
 10
-0.2444346918914297
 20
-1.05930920588767
 30
0.0
 10
0.0068737945839044
 20
-1.101992022033495
 30
0.0
 10
0.2415775657294066
 20
-1.168941428711901
 30
0.0
 10
0.4576129186554372
 20
-1.261228797163942
 30
0.0
 10
0.6582318609472577
 20
-1.369418930728836
 30
0.0
 10
0.8401008082665602
 20
-1.501816979054212
 30
0.0
 10
1.009194946856873
 20
-1.651888060534411
 30
0.0
 10
1.161434531657643
 20
-1.829229404486278
 30
0.0
 10
1.302488851977354
 20
-2.030288496264891
 30
0.0
 10
1.431946085112802
 20
-2.256760120170707
 30
0.0
 10
1.549954209069444
 20
-2.509669374910137
 30
0.0
 10
1.659428185079016
 20
-2.787898742807984
 30
0.0
 10
1.757457038726299
 20
-3.092755473184643
 30
0.0
 10
1.844337533857763
 20
-3.422990381629443
 30
0.0
 10
1.89342862580545
 20
-3.652578087153899
 30
0.0
 10
1.918762857249352
 20
-3.771060439810244
 30
0.0
  0
SPLINE
  5
C4
330
1F
100
AcDbEntity
  8
0
  6
Continuous
 62
     7
370
    25
100
AcDbSpline
210
0.0
220
0.0
230
1.0
 70
     8
 71
     3
 72
    15
 73
    11
 74
     0
 42
0.00000001
 43
0.00000001
 40
0.0
 40
0.0
 40
0.0
 40
0.0
 40
0.1832134461873828
 40
0.3513448261031135
 40
0.5042570484068926
 40
0.6414260855665557
 40
0.7610468271634735
 40
0.8600299387617116
 40
0.9401713711382927
 40
1.0
 40
1.0
 40
1.0
 40
1.0
 10
1.918762857249352
 20
-3.771060439810244
 30
0.0
 10
1.964007878392055
 20
-3.991794178827243
 30
0.0
 10
2.050773366494694
 20
-4.415090933317083
 30
0.0
 10
2.187125100876158
 20
-5.020066702647306
 30
0.0
 10
2.314447045043478
 20
-5.569047597875504
 30
0.0
 10
2.441525221277565
 20
-6.056639973310945
 30
0.0
 10
2.557554134480091
 20
-6.47857024690941
 30
0.0
 10
2.664648593926596
 20
-6.829962798325757
 30
0.0
 10
2.759048115524151
 20
-7.108606202454987
 30
0.0
 10
2.829243541925676
 20
-7.265860245603251
 30
0.0
 10
2.859247787668031
 20
-7.333076718192366
 30
0.0
  0
SPLINE
  5
C6
330
1F
100
AcDbEntity
  8
0
  6
Continuous
 62
     7
370
    25
100
AcDbSpline
210
0.0
220
0.0
230
1.0
 70
     8
 71
     3
 72
    15
 73
    11
 74
     0
 42
0.00000001
 43
0.00000001
 40
0.0
 40
0.0
 40
0.0
 40
0.0
 40
0.0670478430511511
 40
0.1523988293647345
 40
0.2561711971925037
 40
0.3776734963014748
 40
0.5145753531675151
 40
0.6641427015085146
 40
0.826053802705769
 40
1.0
 40
1.0
 40
1.0
 40
1.0
 10
5.22067022244252
 20
-7.331737552302132
 30
0.0
 10
5.181200555884285
 20
-7.246378061226157
 30
0.0
 10
5.09148654414043
 20
-7.052357106588978
 30
0.0
 10
4.975538375176973
 20
-6.711996273031495
 30
0.0
 10
4.845571786669381
 20
-6.296465826921531
 30
0.0
 10
4.714313654474942
 20
-5.805889690908389
 30
0.0
 10
4.570830508174563
 20
-5.252302076688361
 30
0.0
 10
4.424203574667009
 20
-4.641073638877853
 30
0.0
 10
4.261549981800834
 20
-3.980321197232308
 30
0.0
 10
4.155797039143261
 20
-3.521535788482305
 30
0.0
 10
4.101025794598083
 20
-3.283923035731108
 30
0.0
  0
SPLINE
  5
C7
330
1F
100
AcDbEntity
  8
0
  6
Continuous
 62
     7
370
    25
100
AcDbSpline
210
0.0
220
0.0
230
1.0
 70
     8
 71
     3
 72
    15
 73
    11
 74
     0
 42
0.00000001
 43
0.00000001
 40
0.0
 40
0.0
 40
0.0
 40
0.0
 40
0.1505940505792137
 40
0.2918325047803444
 40
0.4228609739065196
 40
0.5458140675146612
 40
0.6624451795425611
 40
0.7754359429034648
 40
0.8866317997947213
 40
1.0
 40
1.0
 40
1.0
 40
1.0
 10
4.101025794598083
 20
-3.283923035731108
 30
0.0
 10
4.056433956782213
 20
-3.094351606715286
 30
0.0
 10
3.970020531600321
 20
-2.726985799422811
 30
0.0
 10
3.791311200844542
 20
-2.209554249803071
 30
0.0
 10
3.586662608972194
 20
-1.740888818799168
 30
0.0
 10
3.350816603650057
 20
-1.322827342939071
 30
0.0
 10
3.076966066370845
 20
-0.9563945410590938
 30
0.0
 10
2.75853792082995
 20
-0.649689732001932
 30
0.0
 10
2.399115915550044
 20
-0.3974045013888049
 30
0.0
 10
2.13230292295607
 20
-0.2815904648637276
 30
0.0
 10
1.997605905308404
 20
-0.223123277152952
 30
0.0
  0
SPLINE
  5
DF
330
1F
100
AcDbEntity
  8
0
  6
Continuous
 62
     7
370
    25
100
AcDbSpline
210
0.0
220
0.0
230
1.0
 70
     8
 71
     3
 72
    13
 73
     9
 74
     0
 42
0.00000001
 43
0.00000001
 40
0.0
 40
0.0
 40
0.0
 40
0.0
 40
0.1369356704291147
 40
0.2688628996952891
 40
0.396393913893091
 40
0.5195361569247533
 40
0.7602574683730146
 40
1.0
 40
1.0
 40
1.0
 40
1.0
 10
-30.38999740774631
 20
2.07565534212791
 30
0.0
 10
-30.39093062209056
 20
1.784326178764208
 30
0.0
 10
-30.39276291833485
 20
1.212323256645284
 30
0.0
 10
-30.37952098457674
 20
0.3690869022569269
 30
0.0
 10
-30.36305815017534
 20
-0.444709355118189
 30
0.0
 10
-30.33407051201219
 20
-1.489733663411538
 30
0.0
 10
-30.27384885173404
 20
-2.772687348224343
 30
0.0
 10
-30.19541541490111
 20
-3.791877993578018
 30
0.0
 10
-30.15627858705955
 20
-4.300435191063873
 30
0.0
  0
SPLINE
  5
E1
330
1F
100
AcDbEntity
  8
0
  6
Continuous
 62
     7
370
    25
100
AcDbSpline
210
0.0
220
0.0
230
1.0
 70
     8
 71
     3
 72
    11
 73
     7
 74
     0
 42
0.00000001
 43
0.00000001
 40
0.0
 40
0.0
 40
0.0
 40
0.0
 40
0.2389605452973338
 40
0.4875677355295211
 40
0.7426723198332972
 40
0.9999999999999999
 40
0.9999999999999999
 40
0.9999999999999999
 40
0.9999999999999999
 10
-30.21271879218691
 20
-4.31865554668745
 30
0.0
 10
-30.38322775701051
 20
-3.910427772753199
 30
0.0
 10
-30.73112899636814
 20
-3.077492398130077
 30
0.0
 10
-31.31988488183049
 20
-1.834790144614359
 30
0.0
 10
-31.95098512476949
 20
-0.5749445708701308
 30
0.0
 10
-32.41330397713809
 20
0.2534822556321275
 30
0.0
 10
-32.64546624720958
 20
0.6694926598013028
 30
0.0
  0
SPLINE
  5
E7
330
1F
100
AcDbEntity
  8
0
  6
Continuous
 62
     7
370
    25
100
AcDbSpline
210
0.0
220
0.0
230
1.0
 70
     8
 71
     3
 72
    13
 73
     9
 74
     0
 42
0.00000001
 43
0.00000001
 40
0.0
 40
0.0
 40
0.0
 40
0.0
 40
0.1465806992210698
 40
0.2858629774101907
 40
0.4178006436075734
 40
0.541968274476581
 40
0.776955459055378
 40
1.0
 40
1.0
 40
1.0
 40
1.0
 10
-36.93396489699295
 20
-1.794008863632787
 30
0.0
 10
-36.93474057465055
 20
-1.475934948606511
 30
0.0
 10
-36.93625330808607
 20
-0.8556243833744854
 30
0.0
 10
-36.94118127018801
 20
0.0509774006194067
 30
0.0
 10
-36.95217126043908
 20
0.9088985869616629
 30
0.0
 10
-36.97513043491579
 20
1.974297369477273
 30
0.0
 10
-37.0107727477668
 20
3.237259652271005
 30
0.0
 10
-37.06516431020436
 20
4.229722115574682
 30
0.0
 10
-37.09165099311106
 20
4.713014695972629
 30
0.0
  0
SPLINE
  5
E9
330
1F
100
AcDbEntity
  8
0
  6
Continuous
 62
     7
370
    25
100
AcDbSpline
210
0.0
220
0.0
230
1.0
 70
     8
 71
     3
 72
    11
 73
     7
 74
     0
 42
0.00000001
 43
0.00000001
 40
0.0
 40
0.0
 40
0.0
 40
0.0
 40
0.2460268533061611
 40
0.4975033781449053
 40
0.7504773575594426
 40
1.0
 40
1.0
 40
1.0
 40
1.0
 10
-37.01269795196041
 20
4.733905133894804
 30
0.0
 10
-36.83210031274554
 20
4.304028829262773
 30
0.0
 10
-36.466904666876
 20
3.434754151052155
 30
0.0
 10
-35.85433806630842
 20
2.150814358128363
 30
0.0
 10
-35.2047130464684
 20
0.8781608811891074
 30
0.0
 10
-34.75149078685217
 20
0.0406844406939543
 30
0.0
 10
-34.52643610804693
 20
-0.375177726981122
 30
0.0
  0
SPLINE
  5
FA
330
1F
100
AcDbEntity
  8
0
  6
Continuous
 62
     7
370
    25
100
AcDbSpline
210
0.0
220
0.0
230
1.0
 70
     8
 71
     3
 72
    15
 73
    11
 74
     0
 42
0.00000001
 43
0.00000001
 40
0.0
 40
0.0
 40
0.0
 40
0.0
 40
0.0763099471206666
 40
0.1647958158568248
 40
0.2687862609631778
 40
0.3866678514580352
 40
0.5184006302369104
 40
0.6642158909684369
 40
0.8259308874899444
 40
1.0
 40
1.0
 40
1.0
 40
1.0
 10
-2.152917410371637
 20
5.68714376328453
 30
0.0
 10
-2.113540234275161
 20
5.695845525328774
 30
0.0
 10
-2.028502908136074
 20
5.714637491901696
 30
0.0
 10
-1.888792806110991
 20
5.74059335996011
 30
0.0
 10
-1.726144783545853
 20
5.762004903034121
 30
0.0
 10
-1.54036169043384
 20
5.782441391118462
 30
0.0
 10
-1.33172574462134
 20
5.795143423587307
 30
0.0
 10
-1.099882399807778
 20
5.806441317145233
 30
0.0
 10
-0.8455039646786379
 20
5.815496402357901
 30
0.0
 10
-0.6680485910608274
 20
5.816366377324928
 30
0.0
 10
-0.5760564491906206
 20
5.816817368799342
 30
0.0
  0
SPLINE
  5
FB
330
1F
100
AcDbEntity
  8
0
  6
Continuous
 62
     7
370
    25
100
AcDbSpline
210
0.0
220
0.0
230
1.0
 70
     8
 71
     3
 72
    23
 73
    19
 74
     0
 42
0.00000001
 43
0.00000001
 40
0.0
 40
0.0
 40
0.0
 40
0.0
 40
0.069148153581264
 40
0.1353081453576992
 40
0.1993547200948475
 40
0.2612059611982784
 40
0.3215959430503
 40
0.3808425812848196
 40
0.4389925993211518
 40
0.4965445505693486
 40
0.5535098131660098
 40
0.6104856683674541
 40
0.6677046122602893
 40
0.7267301484469457
 40
0.7889413416160336
 40
0.8544781484673036
 40
0.9249831529755611
 40
1.0
 40
1.0
 40
1.0
 40
1.0
 10
-0.5760564491906206
 20
5.816817368799342
 30
0.0
 10
-0.4736959034127691
 20
5.816252211767171
 30
0.0
 10
-0.2733982108543417
 20
5.815146320345659
 30
0.0
 10
0.0208228983973643
 20
5.791311306624502
 30
0.0
 10
0.3029713357551742
 20
5.754640138624789
 30
0.0
 10
0.5714958535975854
 20
5.690578066310091
 30
0.0
 10
0.8284459511289956
 20
5.612009740466657
 30
0.0
 10
1.074175546771067
 20
5.517148638719203
 30
0.0
 10
1.306179932765658
 20
5.401245472845591
 30
0.0
 10
1.52299030525084
 20
5.265646233568399
 30
0.0
 10
1.726496425506438
 20
5.11267576769871
 30
0.0
 10
1.900588164609071
 20
4.927216997756217
 30
0.0
 10
2.051764032831938
 20
4.719545635465494
 30
0.0
 10
2.177650331863764
 20
4.486176302736347
 30
0.0
 10
2.270200251746925
 20
4.225074209843854
 30
0.0
 10
2.345906235123365
 20
3.941182920681945
 30
0.0
 10
2.388474009792638
 20
3.631023215293242
 30
0.0
 10
2.399972673770265
 20
3.41596574229066
 30
0.0
 10
2.405900261328489
 20
3.305103123489576
 30
0.0
  0
SPLINE
  5
FC
330
1F
100
AcDbEntity
  8
0
  6
Continuous
 62
     7
370
    25
100
AcDbSpline
210
0.0
220
0.0
230
1.0
 70
     8
 71
     3
 72
    23
 73
    19
 74
     0
 42
0.00000001
 43
0.00000001
 40
0.0
 40
0.0
 40
0.0
 40
0.0
 40
0.0640636760534398
 40
0.1248915399204477
 40
0.183741959058237
 40
0.2412750426968837
 40
0.298196749131752
 40
0.354367623437096
 40
0.4113652485199248
 40
0.4694593121164879
 40
0.5289045810658615
 40
0.5894506604961396
 40
0.6508606224478004
 40
0.714338666848188
 40
0.7806576463694508
 40
0.8502565195406628
 40
0.9234428313337576
 40
1.0
 40
1.0
 40
1.0
 40
1.0
 10
2.405900261328489
 20
3.305103123489576
 30
0.0
 10
2.401959062185
 20
3.209233401751976
 30
0.0
 10
2.394275731154278
 20
3.022336271940602
 30
0.0
 10
2.354616212158767
 20
2.749580662871064
 30
0.0
 10
2.289967275579084
 20
2.491820826740801
 30
0.0
 10
2.199564834579988
 20
2.248044499689392
 30
0.0
 10
2.083819584086654
 20
2.019748122332316
 30
0.0
 10
1.944420105146383
 20
1.806085737641961
 30
0.0
 10
1.780666613015657
 20
1.608007696328142
 30
0.0
 10
1.590636615737876
 20
1.427892844311726
 30
0.0
 10
1.379400412757229
 20
1.264543190566116
 30
0.0
 10
1.148330993333483
 20
1.12100476727698
 30
0.0
 10
0.8985273728844522
 20
0.9987522231005234
 30
0.0
 10
0.6290522913709048
 20
0.9009345266782421
 30
0.0
 10
0.3408140224422679
 20
0.822267940795724
 30
0.0
 10
0.0331295026242109
 20
0.7631428872980556
 30
0.0
 10
-0.293597556375462
 20
0.7262686429349577
 30
0.0
 10
-0.5177657196332907
 20
0.7203748744520135
 30
0.0
 10
-0.6323729120899374
 20
0.7173616532657259
 30
0.0
  0
SPLINE
  5
100
330
1F
100
AcDbEntity
  8
0
  6
Continuous
 62
     7
370
    25
100
AcDbSpline
210
0.0
220
0.0
230
1.0
 70
     8
 71
     3
 72
    11
 73
     7
 74
     0
 42
0.00000001
 43
0.00000001
 40
0.0
 40
0.0
 40
0.0
 40
0.0
 40
0.2405020594079264
 40
0.491651337053168
 40
0.7463690960485269
 40
1.0
 40
1.0
 40
1.0
 40
1.0
 10
12.05395254052527
 20
5.63207847180216
 30
0.0
 10
12.10846816858729
 20
5.393183116859564
 30
0.0
 10
12.21991287510237
 20
4.90481631882687
 30
0.0
 10
12.3988940586886
 20
4.165727197073434
 30
0.0
 10
12.58844426433441
 20
3.415464369992861
 30
0.0
 10
12.72334824348518
 20
2.915405926231167
 30
0.0
 10
12.79065601996347
 20
2.665911269582272
 30
0.0
  0
SPLINE
  5
103
330
1F
100
AcDbEntity
  8
0
  6
Continuous
 62
     7
370
    25
100
AcDbSpline
210
0.0
220
0.0
230
1.0
 70
     8
 71
     3
 72
    11
 73
     7
 74
     0
 42
0.00000001
 43
0.00000001
 40
0.0
 40
0.0
 40
0.0
 40
0.0
 40
0.2449900857643335
 40
0.5010762698485104
 40
0.755836236179526
 40
0.9999999999999999
 40
0.9999999999999999
 40
0.9999999999999999
 40
0.9999999999999999
 10
11.31445248673313
 20
2.685883265189584
 30
0.0
 10
11.37801325305426
 20
2.924799329899614
 30
0.0
 10
11.50801358183304
 20
3.413452452895562
 30
0.0
 10
11.67807550228054
 20
4.157020116691638
 30
0.0
 10
11.84813957608386
 20
4.899614482480514
 30
0.0
 10
11.95915835675928
 20
5.390663172130601
 30
0.0
 10
12.01348883195283
 20
5.630973041231579
 30
0.0
  0
LINE
  5
104
330
1F
100
AcDbEntity
  8
0
  6
Continuous
 62
     7
370
    25
100
AcDbLine
 10
-36.5
 20
50.0
 30
0.0
 11
-36.5
 21
22.0
 31
0.0
  0
LINE
  5
105
330
1F
100
AcDbEntity
  8
0
  6
Continuous
 62
     7
370
    25
100
AcDbLine
 10
-36.5
 20
22.0
 30
0.0
 11
36.5
 21
22.0
 31
0.0
  0
LINE
  5
106
330
1F
100
AcDbEntity
  8
0
  6
Continuous
 62
     7
370
    25
100
AcDbLine
 10
36.5
 20
50.0
 30
0.0
 11
36.5
 21
22.0
 31
0.0
  0
LINE
  5
107
330
1F
100
AcDbEntity
  8
0
  6
Continuous
 62
     7
370
    25
100
AcDbLine
 10
-36.5
 20
50.0
 30
0.0
 11
36.5
 21
50.0
 31
0.0
  0
LINE
  5
108
330
1F
100
AcDbEntity
  8
0
  6
Continuous
 62
     7
370
    25
100
AcDbLine
 10
20.0
 20
-100.0
 30
0.0
 11
60.0
 21
-100.0
 31
0.0
  0
LINE
  5
109
330
1F
100
AcDbEntity
  8
0
  6
Continuous
 62
     7
370
    25
100
AcDbLine
 10
20.0
 20
-100.0
 30
0.0
 11
20.0
 21
-97.5
 31
0.0
  0
LINE
  5
10A
330
1F
100
AcDbEntity
  8
0
  6
Continuous
 62
     7
370
    25
100
AcDbLine
 10
-20.0
 20
-97.5
 30
0.0
 11
20.0
 21
-97.5
 31
0.0
  0
LINE
  5
10B
330
1F
100
AcDbEntity
  8
0
  6
Continuous
 62
     7
370
    25
100
AcDbLine
 10
-20.0
 20
-100.0
 30
0.0
 11
-20.0
 21
-97.5
 31
0.0
  0
LINE
  5
10C
330
1F
100
AcDbEntity
  8
0
  6
Continuous
 62
     7
370
    25
100
AcDbLine
 10
-60.0
 20
-100.0
 30
0.0
 11
-20.0
 21
-100.0
 31
0.0
  0
LINE
  5
10D
330
1F
100
AcDbEntity
  8
0
  6
Continuous
 62
     7
370
    25
100
AcDbLine
 10
-60.0
 20
-100.0
 30
0.0
 11
-60.0
 21
-97.5
 31
0.0
  0
LINE
  5
10E
330
1F
100
AcDbEntity
  8
0
  6
Continuous
 62
     7
370
    25
100
AcDbLine
 10
-100.0
 20
-97.5
 30
0.0
 11
-60.0
 21
-97.5
 31
0.0
  0
LINE
  5
10F
330
1F
100
AcDbEntity
  8
0
  6
Continuous
 62
     7
370
    25
100
AcDbLine
 10
-100.0
 20
100.0
 30
0.0
 11
-100.0
 21
-97.5
 31
0.0
  0
LINE
  5
110
330
1F
100
AcDbEntity
  8
0
  6
Continuous
 62
     7
370
    25
100
AcDbLine
 10
-100.0
 20
100.0
 30
0.0
 11
100.0
 21
100.0
 31
0.0
  0
LINE
  5
111
330
1F
100
AcDbEntity
  8
0
  6
Continuous
 62
     7
370
    25
100
AcDbLine
 10
100.0
 20
100.0
 30
0.0
 11
100.0
 21
-97.5
 31
0.0
  0
LINE
  5
112
330
1F
100
AcDbEntity
  8
0
  6
Continuous
 62
     7
370
    25
100
AcDbLine
 10
60.0
 20
-97.5
 30
0.0
 11
100.0
 21
-97.5
 31
0.0
  0
LINE
  5
113
330
1F
100
AcDbEntity
  8
0
  6
Continuous
 62
     7
370
    25
100
AcDbLine
 10
60.0
 20
-100.0
 30
0.0
 11
60.0
 21
-97.5
 31
0.0
  0
LINE
  5
114
330
1F
100
AcDbEntity
  8
0
  6
Continuous
 62
     7
370
    25
100
AcDbLine
 10
-25.0
 20
-15.0
 30
0.0
 11
25.0
 21
-15.0
 31
0.0
  0
LINE
  5
115
330
1F
100
AcDbEntity
  8
0
  6
Continuous
 62
     7
370
    25
100
AcDbLine
 10
-25.0
 20
-85.0
 30
0.0
 11
-25.0
 21
-15.0
 31
0.0
  0
LINE
  5
116
330
1F
100
AcDbEntity
  8
0
  6
Continuous
 62
     7
370
    25
100
AcDbLine
 10
-25.0
 20
-85.0
 30
0.0
 11
25.0
 21
-85.0
 31
0.0
  0
LINE
  5
117
330
1F
100
AcDbEntity
  8
0
  6
Continuous
 62
     7
370
    25
100
AcDbLine
 10
25.0
 20
-85.0
 30
0.0
 11
25.0
 21
-15.0
 31
0.0
  0
LINE
  5
118
330
1F
100
AcDbEntity
  8
0
  6
Continuous
 62
     7
370
    25
100
AcDbLine
 10
53.6244418487
 20
-5.5703714294
 30
0.0
 11
47.7659953036
 21
-5.5703714294
 31
0.0
  0
LINE
  5
119
330
1F
100
AcDbEntity
  8
0
  6
Continuous
 62
     7
370
    25
100
AcDbLine
 10
47.7659953036
 20
-5.5703714294
 30
0.0
 11
47.7659953036
 21
-0.5018925183
 31
0.0
  0
LINE
  5
11A
330
1F
100
AcDbEntity
  8
0
  6
Continuous
 62
     7
370
    25
100
AcDbLine
 10
47.7659953036
 20
-0.5018925183
 30
0.0
 11
52.9821536893
 21
-0.5018925183
 31
0.0
  0
LINE
  5
11B
330
1F
100
AcDbEntity
  8
0
  6
Continuous
 62
     7
370
    25
100
AcDbLine
 10
52.9821536893
 20
-0.5018925183
 30
0.0
 11
52.9821536893
 21
1.2777077093
 31
0.0
  0
LINE
  5
11C
330
1F
100
AcDbEntity
  8
0
  6
Continuous
 62
     7
370
    25
100
AcDbLine
 10
52.9821536893
 20
1.2777077093
 30
0.0
 11
47.7659953036
 21
1.2777077093
 31
0.0
  0
LINE
  5
11D
330
1F
100
AcDbEntity
  8
0
  6
Continuous
 62
     7
370
    25
100
AcDbLine
 10
47.7659953036
 20
1.2777077093
 30
0.0
 11
47.7659953036
 21
5.6253358953
 31
0.0
  0
LINE
  5
11E
330
1F
100
AcDbEntity
  8
0
  6
Continuous
 62
     7
370
    25
100
AcDbLine
 10
47.7659953036
 20
5.6253358953
 30
0.0
 11
53.2935661302
 21
5.6253358953
 31
0.0
  0
LINE
  5
11F
330
1F
100
AcDbEntity
  8
0
  6
Continuous
 62
     7
370
    25
100
AcDbLine
 10
53.2935661302
 20
5.6253358953
 30
0.0
 11
53.2935661302
 21
7.4049388727
 31
0.0
  0
LINE
  5
120
330
1F
100
AcDbEntity
  8
0
  6
Continuous
 62
     7
370
    25
100
AcDbLine
 10
53.2935661302
 20
7.4049388727
 30
0.0
 11
45.47954416
 21
7.4049388727
 31
0.0
  0
LINE
  5
121
330
1F
100
AcDbEntity
  8
0
  6
Continuous
 62
     7
370
    25
100
AcDbLine
 10
45.47954416
 20
7.4049388727
 30
0.0
 11
45.47954416
 21
-7.3499716571
 31
0.0
  0
LINE
  5
122
330
1F
100
AcDbEntity
  8
0
  6
Continuous
 62
     7
370
    25
100
AcDbLine
 10
45.47954416
 20
-7.3499716571
 30
0.0
 11
53.6244418487
 21
-7.3499716571
 31
0.0
  0
LINE
  5
123
330
1F
100
AcDbEntity
  8
0
  6
Continuous
 62
     7
370
    25
100
AcDbLine
 10
53.6244418487
 20
-7.3499716571
 30
0.0
 11
53.6244418487
 21
-5.5703714294
 31
0.0
  0
LINE
  5
124
330
1F
100
AcDbEntity
  8
0
  6
Continuous
 62
     7
370
    25
100
AcDbLine
 10
42.7791725139
 20
5.4366812442
 30
0.0
 11
43.2672943561
 21
7.2150000523
 31
0.0
  0
LINE
  5
125
330
1F
100
AcDbEntity
  8
0
  6
Continuous
 62
     7
370
    25
100
AcDbLine
 10
43.2071776319
 20
-6.8853608381
 30
0.0
 11
42.8196389723
 21
-5.0594562688
 31
0.0
  0
LINE
  5
126
330
1F
100
AcDbEntity
  8
0
  6
Continuous
 62
     7
370
    25
100
AcDbLine
 10
30.6457878324
 20
7.5682566151
 30
0.0
 11
28.5395493701
 21
7.5682566151
 31
0.0
  0
LINE
  5
127
330
1F
100
AcDbEntity
  8
0
  6
Continuous
 62
     7
370
    25
100
AcDbLine
 10
28.5395493701
 20
7.5682566151
 30
0.0
 11
28.5395493701
 21
2.0756553421
 31
0.0
  0
LINE
  5
128
330
1F
100
AcDbEntity
  8
0
  6
Continuous
 62
     7
370
    25
100
AcDbLine
 10
28.7732681908
 20
-4.3004351911
 30
0.0
 11
28.7168279857
 21
-4.3186555467
 31
0.0
  0
LINE
  5
129
330
1F
100
AcDbEntity
  8
0
  6
Continuous
 62
     7
370
    25
100
AcDbLine
 10
26.2840805306
 20
0.6694926598
 30
0.0
 11
22.3679057461
 21
7.585151554
 31
0.0
  0
LINE
  5
12A
330
1F
100
AcDbEntity
  8
0
  6
Continuous
 62
     7
370
    25
100
AcDbLine
 10
22.3679057461
 20
7.585151554
 30
0.0
 11
19.8893434186
 21
7.585151554
 31
0.0
  0
LINE
  5
12B
330
1F
100
AcDbEntity
  8
0
  6
Continuous
 62
     7
370
    25
100
AcDbLine
 10
19.8893434186
 20
7.585151554
 30
0.0
 11
19.8893434186
 21
-7.3499716571
 31
0.0
  0
LINE
  5
12C
330
1F
100
AcDbEntity
  8
0
  6
Continuous
 62
     7
370
    25
100
AcDbLine
 10
19.8893434186
 20
-7.3499716571
 30
0.0
 11
21.9955818809
 21
-7.3499716571
 31
0.0
  0
LINE
  5
12D
330
1F
100
AcDbEntity
  8
0
  6
Continuous
 62
     7
370
    25
100
AcDbLine
 10
21.9955818809
 20
-7.3499716571
 30
0.0
 11
21.9955818809
 21
-1.7940088636
 31
0.0
  0
LINE
  5
12E
330
1F
100
AcDbEntity
  8
0
  6
Continuous
 62
     7
370
    25
100
AcDbLine
 10
21.8378957847
 20
4.713014696
 30
0.0
 11
21.9168488259
 21
4.7339051339
 31
0.0
  0
LINE
  5
12F
330
1F
100
AcDbEntity
  8
0
  6
Continuous
 62
     7
370
    25
100
AcDbLine
 10
24.4031106698
 20
-0.375177727
 30
0.0
 11
28.3436241757
 21
-7.3499716571
 31
0.0
  0
LINE
  5
130
330
1F
100
AcDbEntity
  8
0
  6
Continuous
 62
     7
370
    25
100
AcDbLine
 10
28.3436241757
 20
-7.3499716571
 30
0.0
 11
30.6457878324
 21
-7.3499716571
 31
0.0
  0
LINE
  5
131
330
1F
100
AcDbEntity
  8
0
  6
Continuous
 62
     7
370
    25
100
AcDbLine
 10
30.6457878324
 20
-7.3499716571
 30
0.0
 11
30.6457878324
 21
7.5682566151
 31
0.0
  0
LINE
  5
132
330
1F
100
AcDbEntity
  8
0
  6
Continuous
 62
     7
370
    25
100
AcDbLine
 10
13.4940315926
 20
7.5784062277
 30
0.0
 11
10.7306366548
 21
7.5784062277
 31
0.0
  0
LINE
  5
133
330
1F
100
AcDbEntity
  8
0
  6
Continuous
 62
     7
370
    25
100
AcDbLine
 10
10.7306366548
 20
7.5784062277
 30
0.0
 11
6.1762847026
 21
-7.3872125681
 31
0.0
  0
LINE
  5
134
330
1F
100
AcDbEntity
  8
0
  6
Continuous
 62
     7
370
    25
100
AcDbLine
 10
6.1762847026
 20
-7.3872125681
 30
0.0
 11
8.4926759657
 21
-7.3872125681
 31
0.0
  0
LINE
  5
135
330
1F
100
AcDbEntity
  8
0
  6
Continuous
 62
     7
370
    25
100
AcDbLine
 10
8.4926759657
 20
-7.3872125681
 30
0.0
 11
9.777070796
 21
-3.0079751174
 31
0.0
  0
LINE
  5
136
330
1F
100
AcDbEntity
  8
0
  6
Continuous
 62
     7
370
    25
100
AcDbLine
 10
9.777070796
 20
-3.0079751174
 30
0.0
 11
14.3308342851
 21
-3.0079751174
 31
0.0
  0
LINE
  5
137
330
1F
100
AcDbEntity
  8
0
  6
Continuous
 62
     7
370
    25
100
AcDbLine
 10
14.3308342851
 20
-3.0079751174
 30
0.0
 11
15.6736106986
 21
-7.3872125681
 31
0.0
  0
LINE
  5
138
330
1F
100
AcDbEntity
  8
0
  6
Continuous
 62
     7
370
    25
100
AcDbLine
 10
15.6736106986
 20
-7.3872125681
 30
0.0
 11
18.0477950818
 21
-7.3872125681
 31
0.0
  0
LINE
  5
139
330
1F
100
AcDbEntity
  8
0
  6
Continuous
 62
     7
370
    25
100
AcDbLine
 10
18.0477950818
 20
-7.3872125681
 30
0.0
 11
13.4940315926
 21
7.5784062277
 31
0.0
  0
LINE
  5
13A
330
1F
100
AcDbEntity
  8
0
  6
Continuous
 62
     7
370
    25
100
AcDbLine
 10
-4.4421816272
 20
7.258518819
 30
0.0
 11
-4.4393685539
 21
-7.3317375523
 31
0.0
  0
LINE
  5
13B
330
1F
100
AcDbEntity
  8
0
  6
Continuous
 62
     7
370
    25
100
AcDbLine
 10
-4.4393685539
 20
-7.3317375523
 30
0.0
 11
-2.1529174104
 21
-7.3317375523
 31
0.0
  0
LINE
  5
13C
330
1F
100
AcDbEntity
  8
0
  6
Continuous
 62
     7
370
    25
100
AcDbLine
 10
-2.1529174104
 20
-7.3317375523
 30
0.0
 11
-2.1529174104
 21
-1.0256356233
 31
0.0
  0
LINE
  5
13D
330
1F
100
AcDbEntity
  8
0
  6
Continuous
 62
     7
370
    25
100
AcDbLine
 10
-2.1529174104
 20
-1.0256356233
 30
0.0
 11
-0.7882276232
 21
-1.0256356233
 31
0.0
  0
LINE
  5
13E
330
1F
100
AcDbEntity
  8
0
  6
Continuous
 62
     7
370
    25
100
AcDbLine
 10
2.8592477877
 20
-7.3330767182
 30
0.0
 11
5.2206702224
 21
-7.3317375523
 31
0.0
  0
LINE
  5
13F
330
1F
100
AcDbEntity
  8
0
  6
Continuous
 62
     7
370
    25
100
AcDbLine
 10
1.9976059053
 20
-0.2231232772
 30
0.0
 11
1.999346546
 21
-0.1828850544
 31
0.0
  0
LINE
  5
140
330
1F
100
AcDbEntity
  8
0
  6
Continuous
 62
     7
370
    25
100
AcDbLine
 10
-6.7468063793
 20
-5.5703714294
 30
0.0
 11
-12.6052529245
 21
-5.5703714294
 31
0.0
  0
LINE
  5
141
330
1F
100
AcDbEntity
  8
0
  6
Continuous
 62
     7
370
    25
100
AcDbLine
 10
-12.6052529245
 20
-5.5703714294
 30
0.0
 11
-12.6052529245
 21
-0.5018925183
 31
0.0
  0
LINE
  5
142
330
1F
100
AcDbEntity
  8
0
  6
Continuous
 62
     7
370
    25
100
AcDbLine
 10
-12.6052529245
 20
-0.5018925183
 30
0.0
 11
-7.3890945388
 21
-0.5018925183
 31
0.0
  0
LINE
  5
143
330
1F
100
AcDbEntity
  8
0
  6
Continuous
 62
     7
370
    25
100
AcDbLine
 10
-7.3890945388
 20
-0.5018925183
 30
0.0
 11
-7.3890945388
 21
1.2777077093
 31
0.0
  0
LINE
  5
144
330
1F
100
AcDbEntity
  8
0
  6
Continuous
 62
     7
370
    25
100
AcDbLine
 10
-7.3890945388
 20
1.2777077093
 30
0.0
 11
-12.6052529245
 21
1.2777077093
 31
0.0
  0
LINE
  5
145
330
1F
100
AcDbEntity
  8
0
  6
Continuous
 62
     7
370
    25
100
AcDbLine
 10
-12.6052529245
 20
1.2777077093
 30
0.0
 11
-12.6052529245
 21
5.6253358953
 31
0.0
  0
LINE
  5
146
330
1F
100
AcDbEntity
  8
0
  6
Continuous
 62
     7
370
    25
100
AcDbLine
 10
-12.6052529245
 20
5.6253358953
 30
0.0
 11
-7.0776820978
 21
5.6253358953
 31
0.0
  0
LINE
  5
147
330
1F
100
AcDbEntity
  8
0
  6
Continuous
 62
     7
370
    25
100
AcDbLine
 10
-7.0776820978
 20
5.6253358953
 30
0.0
 11
-7.0776820978
 21
7.4049388727
 31
0.0
  0
LINE
  5
148
330
1F
100
AcDbEntity
  8
0
  6
Continuous
 62
     7
370
    25
100
AcDbLine
 10
-7.0776820978
 20
7.4049388727
 30
0.0
 11
-14.891704068
 21
7.4049388727
 31
0.0
  0
LINE
  5
149
330
1F
100
AcDbEntity
  8
0
  6
Continuous
 62
     7
370
    25
100
AcDbLine
 10
-14.891704068
 20
7.4049388727
 30
0.0
 11
-14.891704068
 21
-7.3499716571
 31
0.0
  0
LINE
  5
14A
330
1F
100
AcDbEntity
  8
0
  6
Continuous
 62
     7
370
    25
100
AcDbLine
 10
-14.891704068
 20
-7.3499716571
 30
0.0
 11
-6.7468063793
 21
-7.3499716571
 31
0.0
  0
LINE
  5
14B
330
1F
100
AcDbEntity
  8
0
  6
Continuous
 62
     7
370
    25
100
AcDbLine
 10
-6.7468063793
 20
-7.3499716571
 30
0.0
 11
-6.7468063793
 21
-5.5703714294
 31
0.0
  0
LINE
  5
14C
330
1F
100
AcDbEntity
  8
0
  6
Continuous
 62
     7
370
    25
100
AcDbLine
 10
-16.3254997648
 20
7.5686745889
 30
0.0
 11
-26.6502845401
 21
7.5686745889
 31
0.0
  0
LINE
  5
14D
330
1F
100
AcDbEntity
  8
0
  6
Continuous
 62
     7
370
    25
100
AcDbLine
 10
-26.6502845401
 20
7.5686745889
 30
0.0
 11
-26.6502845401
 21
5.6418101106
 31
0.0
  0
LINE
  5
14E
330
1F
100
AcDbEntity
  8
0
  6
Continuous
 62
     7
370
    25
100
AcDbLine
 10
-26.6502845401
 20
5.6418101106
 30
0.0
 11
-22.640849363
 21
5.6418101106
 31
0.0
  0
LINE
  5
14F
330
1F
100
AcDbEntity
  8
0
  6
Continuous
 62
     7
370
    25
100
AcDbLine
 10
-22.640849363
 20
5.6418101106
 30
0.0
 11
-22.640849363
 21
-7.3207327435
 31
0.0
  0
LINE
  5
150
330
1F
100
AcDbEntity
  8
0
  6
Continuous
 62
     7
370
    25
100
AcDbLine
 10
-22.640849363
 20
-7.3207327435
 30
0.0
 11
-20.3543982194
 21
-7.3207327435
 31
0.0
  0
LINE
  5
151
330
1F
100
AcDbEntity
  8
0
  6
Continuous
 62
     7
370
    25
100
AcDbLine
 10
-20.3543982194
 20
-7.3207327435
 30
0.0
 11
-20.3543982194
 21
5.6418101106
 31
0.0
  0
LINE
  5
152
330
1F
100
AcDbEntity
  8
0
  6
Continuous
 62
     7
370
    25
100
AcDbLine
 10
-20.3543982194
 20
5.6418101106
 30
0.0
 11
-16.3254997648
 21
5.6418101106
 31
0.0
  0
LINE
  5
153
330
1F
100
AcDbEntity
  8
0
  6
Continuous
 62
     7
370
    25
100
AcDbLine
 10
-16.3254997648
 20
5.6418101106
 30
0.0
 11
-16.3254997648
 21
7.5686745889
 31
0.0
  0
LINE
  5
154
330
1F
100
AcDbEntity
  8
0
  6
Continuous
 62
     7
370
    25
100
AcDbLine
 10
-28.2837589455
 20
7.5682566151
 30
0.0
 11
-30.3899974077
 21
7.5682566151
 31
0.0
  0
LINE
  5
155
330
1F
100
AcDbEntity
  8
0
  6
Continuous
 62
     7
370
    25
100
AcDbLine
 10
-30.3899974077
 20
7.5682566151
 30
0.0
 11
-30.3899974077
 21
2.0756553421
 31
0.0
  0
LINE
  5
156
330
1F
100
AcDbEntity
  8
0
  6
Continuous
 62
     7
370
    25
100
AcDbLine
 10
-30.1562785871
 20
-4.3004351911
 30
0.0
 11
-30.2127187922
 21
-4.3186555467
 31
0.0
  0
LINE
  5
157
330
1F
100
AcDbEntity
  8
0
  6
Continuous
 62
     7
370
    25
100
AcDbLine
 10
-32.6454662472
 20
0.6694926598
 30
0.0
 11
-36.5616410318
 21
7.585151554
 31
0.0
  0
LINE
  5
158
330
1F
100
AcDbEntity
  8
0
  6
Continuous
 62
     7
370
    25
100
AcDbLine
 10
-36.5616410318
 20
7.585151554
 30
0.0
 11
-39.0402033593
 21
7.585151554
 31
0.0
  0
LINE
  5
159
330
1F
100
AcDbEntity
  8
0
  6
Continuous
 62
     7
370
    25
100
AcDbLine
 10
-39.0402033593
 20
7.585151554
 30
0.0
 11
-39.0402033593
 21
-7.3499716571
 31
0.0
  0
LINE
  5
15A
330
1F
100
AcDbEntity
  8
0
  6
Continuous
 62
     7
370
    25
100
AcDbLine
 10
-39.0402033593
 20
-7.3499716571
 30
0.0
 11
-36.933964897
 21
-7.3499716571
 31
0.0
  0
LINE
  5
15B
330
1F
100
AcDbEntity
  8
0
  6
Continuous
 62
     7
370
    25
100
AcDbLine
 10
-36.933964897
 20
-7.3499716571
 30
0.0
 11
-36.933964897
 21
-1.7940088636
 31
0.0
  0
LINE
  5
15C
330
1F
100
AcDbEntity
  8
0
  6
Continuous
 62
     7
370
    25
100
AcDbLine
 10
-37.0916509931
 20
4.713014696
 30
0.0
 11
-37.012697952
 21
4.7339051339
 31
0.0
  0
LINE
  5
15D
330
1F
100
AcDbEntity
  8
0
  6
Continuous
 62
     7
370
    25
100
AcDbLine
 10
-34.526436108
 20
-0.375177727
 30
0.0
 11
-30.5859226022
 21
-7.3499716571
 31
0.0
  0
LINE
  5
15E
330
1F
100
AcDbEntity
  8
0
  6
Continuous
 62
     7
370
    25
100
AcDbLine
 10
-30.5859226022
 20
-7.3499716571
 30
0.0
 11
-28.2837589455
 21
-7.3499716571
 31
0.0
  0
LINE
  5
15F
330
1F
100
AcDbEntity
  8
0
  6
Continuous
 62
     7
370
    25
100
AcDbLine
 10
-28.2837589455
 20
-7.3499716571
 30
0.0
 11
-28.2837589455
 21
7.5682566151
 31
0.0
  0
LINE
  5
160
330
1F
100
AcDbEntity
  8
0
  6
Continuous
 62
     7
370
    25
100
AcDbLine
 10
-41.3476411847
 20
-5.5703714294
 30
0.0
 11
-47.2060877298
 21
-5.5703714294
 31
0.0
  0
LINE
  5
161
330
1F
100
AcDbEntity
  8
0
  6
Continuous
 62
     7
370
    25
100
AcDbLine
 10
-47.2060877298
 20
-5.5703714294
 30
0.0
 11
-47.2060877298
 21
-0.5018925183
 31
0.0
  0
LINE
  5
162
330
1F
100
AcDbEntity
  8
0
  6
Continuous
 62
     7
370
    25
100
AcDbLine
 10
-47.2060877298
 20
-0.5018925183
 30
0.0
 11
-41.9899293441
 21
-0.5018925183
 31
0.0
  0
LINE
  5
163
330
1F
100
AcDbEntity
  8
0
  6
Continuous
 62
     7
370
    25
100
AcDbLine
 10
-41.9899293441
 20
-0.5018925183
 30
0.0
 11
-41.9899293441
 21
1.2777077093
 31
0.0
  0
LINE
  5
164
330
1F
100
AcDbEntity
  8
0
  6
Continuous
 62
     7
370
    25
100
AcDbLine
 10
-41.9899293441
 20
1.2777077093
 30
0.0
 11
-47.2060877298
 21
1.2777077093
 31
0.0
  0
LINE
  5
165
330
1F
100
AcDbEntity
  8
0
  6
Continuous
 62
     7
370
    25
100
AcDbLine
 10
-47.2060877298
 20
1.2777077093
 30
0.0
 11
-47.2060877298
 21
5.6253358953
 31
0.0
  0
LINE
  5
166
330
1F
100
AcDbEntity
  8
0
  6
Continuous
 62
     7
370
    25
100
AcDbLine
 10
-47.2060877298
 20
5.6253358953
 30
0.0
 11
-41.6785169032
 21
5.6253358953
 31
0.0
  0
LINE
  5
167
330
1F
100
AcDbEntity
  8
0
  6
Continuous
 62
     7
370
    25
100
AcDbLine
 10
-41.6785169032
 20
5.6253358953
 30
0.0
 11
-41.6785169032
 21
7.4049388727
 31
0.0
  0
LINE
  5
168
330
1F
100
AcDbEntity
  8
0
  6
Continuous
 62
     7
370
    25
100
AcDbLine
 10
-41.6785169032
 20
7.4049388727
 30
0.0
 11
-49.4925388734
 21
7.4049388727
 31
0.0
  0
LINE
  5
169
330
1F
100
AcDbEntity
  8
0
  6
Continuous
 62
     7
370
    25
100
AcDbLine
 10
-49.4925388734
 20
7.4049388727
 30
0.0
 11
-49.4925388734
 21
-7.3499716571
 31
0.0
  0
LINE
  5
16A
330
1F
100
AcDbEntity
  8
0
  6
Continuous
 62
     7
370
    25
100
AcDbLine
 10
-49.4925388734
 20
-7.3499716571
 30
0.0
 11
-41.3476411847
 21
-7.3499716571
 31
0.0
  0
LINE
  5
16B
330
1F
100
AcDbEntity
  8
0
  6
Continuous
 62
     7
370
    25
100
AcDbLine
 10
-41.3476411847
 20
-7.3499716571
 30
0.0
 11
-41.3476411847
 21
-5.5703714294
 31
0.0
  0
LINE
  5
16C
330
1F
100
AcDbEntity
  8
0
  6
Continuous
 62
     7
370
    25
100
AcDbLine
 10
-2.1529174104
 20
0.7201747266
 30
0.0
 11
-2.1529174104
 21
5.6871437633
 31
0.0
  0
LINE
  5
16D
330
1F
100
AcDbEntity
  8
0
  6
Continuous
 62
     7
370
    25
100
AcDbLine
 10
-0.6323729121
 20
0.7173616533
 30
0.0
 11
-2.1529174104
 21
0.7201747266
 31
0.0
  0
LINE
  5
16E
330
1F
100
AcDbEntity
  8
0
  6
Continuous
 62
     7
370
    25
100
AcDbLine
 10
10.1273602951
 20
-1.2621620176
 30
0.0
 11
11.3144524867
 21
2.6858832652
 31
0.0
  0
LINE
  5
16F
330
1F
100
AcDbEntity
  8
0
  6
Continuous
 62
     7
370
    25
100
AcDbLine
 10
12.013488832
 20
5.6309730412
 30
0.0
 11
12.0539525405
 21
5.6320784718
 31
0.0
  0
LINE
  5
170
330
1F
100
AcDbEntity
  8
0
  6
Continuous
 62
     7
370
    25
100
AcDbLine
 10
12.79065602
 20
2.6659112696
 30
0.0
 11
13.9610842582
 21
-1.2621620176
 31
0.0
  0
LINE
  5
171
330
1F
100
AcDbEntity
  8
0
  6
Continuous
 62
     7
370
    25
100
AcDbLine
 10
13.9610842582
 20
-1.2621620176
 30
0.0
 11
10.1273602951
 21
-1.2621620176
 31
0.0
  0
ENDSEC
  0
SECTION
  2
OBJECTS
  0
DICTIONARY
  5
C
330
0
100
AcDbDictionary
281
     1
  3
ACAD_GROUP
350
D
  3
ACAD_LAYOUT
350
1A
  3
ACAD_MLINESTYLE
350
17
  3
ACAD_PLOTSETTINGS
350
19
  3
ACAD_PLOTSTYLENAME
350
E
  3
ACAD_SCALELIST
350
47
  3
DWGPROPS
350
172
  0
DICTIONARY
  5
D
102
{ACAD_REACTORS
330
C
102
}
330
C
100
AcDbDictionary
281
     1
  0
DICTIONARY
  5
1A
102
{ACAD_REACTORS
330
C
102
}
330
C
100
AcDbDictionary
281
     1
  3
Layout1
350
1E
  3
Layout2
350
26
  3
Model
350
22
  0
DICTIONARY
  5
17
102
{ACAD_REACTORS
330
C
102
}
330
C
100
AcDbDictionary
281
     1
  3
Standard
350
18
  0
DICTIONARY
  5
19
102
{ACAD_REACTORS
330
C
102
}
330
C
100
AcDbDictionary
281
     1
  0
ACDBDICTIONARYWDFLT
  5
E
102
{ACAD_REACTORS
330
C
102
}
330
C
100
AcDbDictionary
281
     1
  3
Normal
350
F
100
AcDbDictionaryWithDefault
340
F
  0
DICTIONARY
  5
47
102
{ACAD_REACTORS
330
C
102
}
330
C
100
AcDbDictionary
281
     1
  3
A0
350
48
  3
A1
350
49
  3
A2
350
4A
  3
A3
350
4B
  3
A4
350
4C
  3
A5
350
4D
  3
A6
350
4E
  3
A7
350
4F
  3
A8
350
50
  3
A9
350
51
  3
B0
350
52
  3
B1
350
53
  3
B2
350
54
  3
B3
350
55
  3
B4
350
56
  3
B5
350
57
  3
B6
350
58
  3
B7
350
59
  3
B8
350
5A
  3
B9
350
5B
  3
C0
350
5C
  3
C1
350
5D
  3
C2
350
5E
  3
C3
350
5F
  3
C4
350
60
  3
C5
350
61
  3
C6
350
62
  3
C7
350
63
  3
C8
350
64
  3
C9
350
65
  3
D0
350
66
  3
D1
350
67
  3
D2
350
68
  0
XRECORD
  5
172
102
{ACAD_REACTORS
330
C
102
}
330
C
100
AcDbXrecord
280
     1
  1
DWGPROPS COOKIE
  2

  3

  4

  6

  7

  8
momos
  9

300
=
301
=
302
=
303
=
304
=
305
=
306
=
307
=
308
=
309
=
 40
0.0
 41
2460295.681577187
 42
2460295.681651736
  1

 90
        0
  0
LAYOUT
  5
1E
102
{ACAD_REACTORS
330
1A
102
}
330
1A
100
AcDbPlotSettings
  1

  2
none_device
  4

  6

 40
0.0
 41
0.0
 42
0.0
 43
0.0
 44
0.0
 45
0.0
 46
0.0
 47
0.0
 48
0.0
 49
0.0
140
0.0
141
0.0
142
1.0
143
1.0
 70
   688
 72
     1
 73
     0
 74
     5
  7

 75
    16
147
1.0
148
0.0
149
0.0
100
AcDbLayout
  1
Layout1
 70
     1
 71
     1
 10
0.0
 20
0.0
 11
420.0
 21
297.0
 12
0.0
 22
0.0
 32
0.0
 14
1.0000000000E+20
 24
1.0000000000E+20
 34
1.0000000000E+20
 15
-1.0000000000E+20
 25
-1.0000000000E+20
 35
-1.0000000000E+20
146
0.0
 13
0.0
 23
0.0
 33
0.0
 16
1.0
 26
0.0
 36
0.0
 17
0.0
 27
1.0
 37
0.0
 76
     0
330
1B
  0
LAYOUT
  5
26
102
{ACAD_REACTORS
330
1A
102
}
330
1A
100
AcDbPlotSettings
  1

  2
none_device
  4

  6

 40
0.0
 41
0.0
 42
0.0
 43
0.0
 44
0.0
 45
0.0
 46
0.0
 47
0.0
 48
0.0
 49
0.0
140
0.0
141
0.0
142
1.0
143
1.0
 70
   688
 72
     1
 73
     0
 74
     5
  7

 75
    16
147
1.0
148
0.0
149
0.0
100
AcDbLayout
  1
Layout2
 70
     1
 71
     2
 10
0.0
 20
0.0
 11
0.0
 21
0.0
 12
0.0
 22
0.0
 32
0.0
 14
0.0
 24
0.0
 34
0.0
 15
0.0
 25
0.0
 35
0.0
146
0.0
 13
0.0
 23
0.0
 33
0.0
 16
1.0
 26
0.0
 36
0.0
 17
0.0
 27
1.0
 37
0.0
 76
     0
330
23
  0
LAYOUT
  5
22
102
{ACAD_REACTORS
330
1A
102
}
330
1A
100
AcDbPlotSettings
  1

  2
none_device
  4
ANSI_A_(11.00_x_8.50_Inches)
  6

 40
6.35
 41
19.05
 42
6.35000508
 43
19.05000254
 44
279.4
 45
215.9
 46
133.34999746
 47
88.89999873
 48
0.0
 49
0.0
140
0.0
141
0.0
142
0.042075
143
1.0
 70
  1696
 72
     0
 73
     0
 74
     0
  7

 75
     0
147
0.0179189148
148
-1300.4909072572
149
0.0
100
AcDbLayout
  1
Model
 70
     1
 71
     0
 10
0.0
 20
0.0
 11
420.0
 21
297.0
 12
0.0
 22
0.0
 32
0.0
 14
-100.0
 24
-100.0
 34
0.0
 15
100.0
 25
100.0
 35
0.0
146
0.0
 13
0.0
 23
0.0
 33
0.0
 16
1.0
 26
0.0
 36
0.0
 17
0.0
 27
1.0
 37
0.0
 76
     0
330
1F
331
29
  0
MLINESTYLE
  5
18
102
{ACAD_REACTORS
330
17
102
}
330
17
100
AcDbMlineStyle
  2
Standard
 70
     0
  3

 62
   256
 51
90.0
 52
90.0
 71
     2
 49
0.5
 62
   256
  6
BYLAYER
 49
-0.5
 62
   256
  6
BYLAYER
  0
ACDBPLACEHOLDER
  5
F
102
{ACAD_REACTORS
330
E
102
}
330
E
  0
SCALE
  5
48
102
{ACAD_REACTORS
330
47
102
}
330
47
100
AcDbScale
 70
     0
300
1:1
140
1.0
141
1.0
290
     1
  0
SCALE
  5
49
102
{ACAD_REACTORS
330
47
102
}
330
47
100
AcDbScale
 70
     0
300
1:2
140
1.0
141
2.0
290
     0
  0
SCALE
  5
4A
102
{ACAD_REACTORS
330
47
102
}
330
47
100
AcDbScale
 70
     0
300
1:4
140
1.0
141
4.0
290
     0
  0
SCALE
  5
4B
102
{ACAD_REACTORS
330
47
102
}
330
47
100
AcDbScale
 70
     0
300
1:5
140
1.0
141
5.0
290
     0
  0
SCALE
  5
4C
102
{ACAD_REACTORS
330
47
102
}
330
47
100
AcDbScale
 70
     0
300
1:8
140
1.0
141
8.0
290
     0
  0
SCALE
  5
4D
102
{ACAD_REACTORS
330
47
102
}
330
47
100
AcDbScale
 70
     0
300
1:10
140
1.0
141
10.0
290
     0
  0
SCALE
  5
4E
102
{ACAD_REACTORS
330
47
102
}
330
47
100
AcDbScale
 70
     0
300
1:16
140
1.0
141
16.0
290
     0
  0
SCALE
  5
4F
102
{ACAD_REACTORS
330
47
102
}
330
47
100
AcDbScale
 70
     0
300
1:20
140
1.0
141
20.0
290
     0
  0
SCALE
  5
50
102
{ACAD_REACTORS
330
47
102
}
330
47
100
AcDbScale
 70
     0
300
1:30
140
1.0
141
30.0
290
     0
  0
SCALE
  5
51
102
{ACAD_REACTORS
330
47
102
}
330
47
100
AcDbScale
 70
     0
300
1:40
140
1.0
141
40.0
290
     0
  0
SCALE
  5
52
102
{ACAD_REACTORS
330
47
102
}
330
47
100
AcDbScale
 70
     0
300
1:50
140
1.0
141
50.0
290
     0
  0
SCALE
  5
53
102
{ACAD_REACTORS
330
47
102
}
330
47
100
AcDbScale
 70
     0
300
1:100
140
1.0
141
100.0
290
     0
  0
SCALE
  5
54
102
{ACAD_REACTORS
330
47
102
}
330
47
100
AcDbScale
 70
     0
300
2:1
140
2.0
141
1.0
290
     0
  0
SCALE
  5
55
102
{ACAD_REACTORS
330
47
102
}
330
47
100
AcDbScale
 70
     0
300
4:1
140
4.0
141
1.0
290
     0
  0
SCALE
  5
56
102
{ACAD_REACTORS
330
47
102
}
330
47
100
AcDbScale
 70
     0
300
8:1
140
8.0
141
1.0
290
     0
  0
SCALE
  5
57
102
{ACAD_REACTORS
330
47
102
}
330
47
100
AcDbScale
 70
     0
300
10:1
140
10.0
141
1.0
290
     0
  0
SCALE
  5
58
102
{ACAD_REACTORS
330
47
102
}
330
47
100
AcDbScale
 70
     0
300
100:1
140
100.0
141
1.0
290
     0
  0
SCALE
  5
59
102
{ACAD_REACTORS
330
47
102
}
330
47
100
AcDbScale
 70
     0
300
1/128" = 1'-0"
140
0.0078125
141
12.0
290
     0
  0
SCALE
  5
5A
102
{ACAD_REACTORS
330
47
102
}
330
47
100
AcDbScale
 70
     0
300
1/64" = 1'-0"
140
0.015625
141
12.0
290
     0
  0
SCALE
  5
5B
102
{ACAD_REACTORS
330
47
102
}
330
47
100
AcDbScale
 70
     0
300
1/32" = 1'-0"
140
0.03125
141
12.0
290
     0
  0
SCALE
  5
5C
102
{ACAD_REACTORS
330
47
102
}
330
47
100
AcDbScale
 70
     0
300
1/16" = 1'-0"
140
0.0625
141
12.0
290
     0
  0
SCALE
  5
5D
102
{ACAD_REACTORS
330
47
102
}
330
47
100
AcDbScale
 70
     0
300
3/32" = 1'-0"
140
0.09375
141
12.0
290
     0
  0
SCALE
  5
5E
102
{ACAD_REACTORS
330
47
102
}
330
47
100
AcDbScale
 70
     0
300
1/8" = 1'-0"
140
0.125
141
12.0
290
     0
  0
SCALE
  5
5F
102
{ACAD_REACTORS
330
47
102
}
330
47
100
AcDbScale
 70
     0
300
3/16" = 1'-0"
140
0.1875
141
12.0
290
     0
  0
SCALE
  5
60
102
{ACAD_REACTORS
330
47
102
}
330
47
100
AcDbScale
 70
     0
300
1/4" = 1'-0"
140
0.25
141
12.0
290
     0
  0
SCALE
  5
61
102
{ACAD_REACTORS
330
47
102
}
330
47
100
AcDbScale
 70
     0
300
3/8" = 1'-0"
140
0.375
141
12.0
290
     0
  0
SCALE
  5
62
102
{ACAD_REACTORS
330
47
102
}
330
47
100
AcDbScale
 70
     0
300
1/2" = 1'-0"
140
0.5
141
12.0
290
     0
  0
SCALE
  5
63
102
{ACAD_REACTORS
330
47
102
}
330
47
100
AcDbScale
 70
     0
300
3/4" = 1'-0"
140
0.75
141
12.0
290
     0
  0
SCALE
  5
64
102
{ACAD_REACTORS
330
47
102
}
330
47
100
AcDbScale
 70
     0
300
1" = 1'-0"
140
1.0
141
12.0
290
     0
  0
SCALE
  5
65
102
{ACAD_REACTORS
330
47
102
}
330
47
100
AcDbScale
 70
     0
300
1-1/2" = 1'-0"
140
1.5
141
12.0
290
     0
  0
SCALE
  5
66
102
{ACAD_REACTORS
330
47
102
}
330
47
100
AcDbScale
 70
     0
300
3" = 1'-0"
140
3.0
141
12.0
290
     0
  0
SCALE
  5
67
102
{ACAD_REACTORS
330
47
102
}
330
47
100
AcDbScale
 70
     0
300
6" = 1'-0"
140
6.0
141
12.0
290
     0
  0
SCALE
  5
68
102
{ACAD_REACTORS
330
47
102
}
330
47
100
AcDbScale
 70
     0
300
1'-0" = 1'-0"
140
12.0
141
12.0
290
     0
  0
ENDSEC
  0
EOF
